<svg width="80" height="80" viewBox="0 0 80 80" fill="none" xmlns="http://www.w3.org/2000/svg">
<path fill-rule="evenodd" clip-rule="evenodd" d="M0 12.5C0 5.59644 5.59644 0 12.5 0H67.5C74.4036 0 80 5.59644 80 12.5V67.5C80 74.4036 74.4036 80 67.5 80H12.5C5.59644 80 0 74.4036 0 67.5V12.5ZM55.25 28.75C57 28.5 58.5 28.25 60 27.5C59 29.25 57.5 30.75 55.75 31.75C56.25 43.5 47.75 56.25 32.5 56.25C28 56.25 23.75 54.75 20 52.5C24.25 53 28.75 51.75 31.75 49.5C28 49.5 25 47 24 43.75C25.25 44 26.5 43.75 27.75 43.5C24 42.5 21.25 39 21.25 35.25C22.5 35.75 23.75 36.25 25 36.25C21.5 33.75 20.25 29 22.5 25.25C26.75 30.25 32.75 33.5 39.5 33.75C38.25 28.75 42.25 23.75 47.5 23.75C49.75 23.75 52 24.75 53.5 26.25C55.5 25.75 57.25 25.25 58.75 24.25C58.25 26.25 57 27.75 55.25 28.75Z" fill="#252C32"/>
</svg>
