<svg width="750" height="166" viewBox="0 0 750 166" fill="none" xmlns="http://www.w3.org/2000/svg">
<path d="M150.448 47.9541C154.954 44.3793 152.742 39.8816 147.613 41.8935C149.084 39.0253 153.241 32.8151 150.772 29.4979C148.835 26.9041 146.391 27.3697 144.495 29.4231C145.326 24.8008 146.632 14.2176 140.446 12.3719C136.331 11.1498 132.873 14.999 131.983 18.6404C129.539 16.6119 129.722 9.6617 125.665 9.19614C122.04 8.78878 119.014 14.5418 118.715 17.385C113.311 10.9171 110.06 16.1796 110.401 23.4207C104.224 20.7604 106.186 28.0597 106.519 31.2854C103.617 31.0193 103.152 33.3804 104.39 35.808L98.2881 61.3057C106.519 74.1835 160.474 66.9174 152.983 55.0456C155.153 53.5575 156.558 51.1133 155.868 48.5194C154.205 48.3033 152.227 47.5052 150.448 47.9541Z" fill="url(#paint0_linear_1_12692)"/>
<path d="M144.312 59.6345C147.638 55.7604 144.944 52.1523 139.973 52.9171C144.819 49.4919 141.269 42.6165 136.049 45.1522C138.144 42.2923 140.463 36.9633 138.543 33.4716C136.88 30.5452 133.895 29.4977 132.241 33.0559C132.1 29.0571 128.749 24.6426 124.426 26.854C121.101 28.5167 121.375 34.012 120.519 36.7472C113.959 30.4122 113.951 44.6118 113.743 47.929C109.744 47.3304 110.31 50.9634 111.972 53.4575C109.121 54.1309 109.595 57.3067 111.058 59.6428L136.547 66.2936C140.613 68.6547 151.77 62.9267 144.312 59.6345Z" fill="url(#paint1_linear_1_12692)"/>
<path d="M524.036 43.9548C522.199 39.1163 525.798 35.8574 528.766 39.5071C528.908 36.3978 528.475 29.3063 531.759 27.1946C534.328 25.5319 535.958 26.8455 536.498 29.3811C537.861 24.9084 541.486 14.8988 546.89 15.4559C550.506 15.8217 551.437 20.5354 550.523 24.1435C553.233 23.1875 556.101 16.8525 559.344 17.8917C562.237 18.8229 562.012 25.0913 561.006 27.7766C567.84 23.8775 568.006 29.7885 564.623 36.1899C570.392 36.0153 565.77 41.8931 564.132 44.6864C566.427 45.5178 565.795 47.7874 563.775 49.5249L557.332 74.7068C545.601 83.3696 508.282 57.4644 519.048 49.4335C518.509 48.3321 518.285 47.1031 518.401 45.8825C518.517 44.6618 518.968 43.497 519.704 42.5166C521.076 42.924 522.889 42.9156 524.036 43.9548Z" fill="url(#paint2_linear_1_12692)"/>
<path d="M523.57 56.7001C522.739 52.0029 526.322 49.7417 529.722 52.2025C527.569 47.3723 533.198 42.4423 536.016 46.6074C535.683 43.282 536.249 37.637 539.2 35.1762C541.694 33.1144 544.396 33.2558 544.105 37.0634C545.934 33.5052 550.348 30.7284 552.635 34.27C554.381 36.9803 551.803 41.8271 551.296 44.5955C558.945 41.2701 552.818 54.0481 551.546 57.1158C554.796 58.0137 552.809 61.0897 550.481 62.7441C552.327 64.4068 550.598 67.0672 548.503 68.6467L526.522 65.4959C522.465 66.161 516.579 56.9828 523.57 56.7001Z" fill="url(#paint3_linear_1_12692)"/>
<path d="M284.137 53.017C286.482 50.2736 283.223 48.7272 280.33 49.0514C284.487 46.0336 286.382 36.049 278.883 38.9338C280.43 34.2948 285.26 25.2746 280.646 21.1344C274.968 16.0382 271.01 24.5097 268.425 27.9848C266.446 24.252 265.848 19.48 260.643 22.3898C257.492 24.1522 255.921 29.6891 256.154 33.0478C252.704 29.0489 249.328 34.22 249.578 38.0359L242.403 56.8662C242.26 57.9552 242.283 59.0595 242.47 60.1418C256.162 60.1418 269.231 63.1014 282.974 60.2C285.168 59.7344 290.813 59.2855 289.974 55.7605C289.475 53.6405 285.958 52.7676 284.137 53.017Z" fill="url(#paint4_linear_1_12692)"/>
<path d="M275.226 53.4165C275.506 52.8471 275.873 52.3252 276.315 51.8702C275.85 51.6873 274.611 50.5567 274.021 50.3821C277.346 48.761 276.349 46.4664 273.023 46.2253C275.517 43.8227 276.191 35.3345 271.294 38.8677C271.011 27.8024 265.857 32.7822 263.62 40.198C259.464 35.3844 254.534 44.5293 258.89 48.9023C251.89 46.1671 254.301 55.204 258.474 57.3988L276.207 58.5044C277.895 59.6684 280.031 53.932 275.226 53.4165Z" fill="url(#paint5_linear_1_12692)"/>
<path d="M123.204 60.1669C120.71 57.6728 119.222 57.3236 116.795 60.2251C114.874 57.6811 111.665 56.7084 108.481 57.016C112.189 53.9151 110.002 50.6478 105.846 49.5338C109.296 43.1656 110.002 31.0111 99.1947 33.1727C101.423 26.6881 98.4299 15.3234 91.912 12.131C83.1661 7.83283 77.0556 16.3709 73.3893 23.0051C66.9296 19.0977 64.8679 10.7924 56.1054 17.6428C47.9996 23.9778 52.4972 32.1667 48.4984 38.2606C46.0625 41.9684 41.0162 39.491 37.5494 43.839C34.5316 47.6383 35.7038 55.0872 36.7181 59.4851C32.0791 58.5706 28.3629 60.7571 31.547 65.3046C27.7976 65.1799 26.243 66.9092 27.5814 70.2347C23.6325 72.1135 19.3344 74.9983 16.8735 78.7394L109.986 87.053C110.551 87.7514 111.108 88.458 111.648 89.1647C119.962 87.053 129.498 77.5256 129.938 68.68C130.13 64.8474 128.325 55.5196 123.204 60.1669Z" fill="url(#paint6_linear_1_12692)"/>
<path d="M104.474 60.142C104.358 56.8665 102.038 56.5422 100.533 59.452C99.9513 56.9579 98.0392 55.8688 95.5867 56.2263C97.4572 52.0695 97.848 45.0113 91.1722 45.7429C90.823 39.4745 91.4382 28.7499 82.0272 30.5207C77.2053 31.4269 75.0188 36.1739 71.8264 39.0837C66.248 25.1584 52.7052 44.6954 53.3204 52.9424C45.597 50.4484 43.1778 55.6444 42.9699 62.7608C42.8785 66.0862 43.7182 65.7869 42.4961 67.9568C41.4902 69.7359 37.8072 67.3832 38.9212 71.1991C36.1112 71.1326 33.9331 72.7288 34.5483 75.7134L120.453 67.3998C119.322 65.7121 109.013 57.9971 104.474 60.142Z" fill="url(#paint7_linear_1_12692)"/>
<path d="M251.499 53.0092C253.993 50.0995 252.064 48.1707 247.924 47.7883C253.395 43.8394 256.828 34.0626 247.159 32.882C249.396 25.3499 252.389 15.4235 244.557 10.0529C238.131 5.64672 231.455 8.48165 227.93 14.775C225.503 10.4021 224.987 3.29395 217.954 5.19777C213.282 6.46974 212.076 12.2061 211.162 16.3214C205.783 12.6634 200.42 22.2323 202.083 26.4224C199.996 27.0708 199.057 29.0495 198.001 29.7478L188.025 53.8572C186.711 61.0235 181.682 66.2112 189.538 71.2659C194.942 74.7327 205.999 72.0973 211.685 71.7315C229.144 70.5759 251.782 72.6709 267.827 64.4571C266.289 59.8763 256.703 53.1339 251.499 53.0092Z" fill="url(#paint8_linear_1_12692)"/>
<path d="M239.113 48.4612C241.823 45.5597 244.816 34.8352 237.051 39.1499C238.713 34.7105 242.039 18.9978 234.557 17.4431C227.906 16.0465 224.979 25.5156 222.568 28.6166C221.222 24.676 219.783 18.1581 214.646 20.5774C209.508 22.9966 209.857 32.657 210.738 37.3293C206.473 37.2295 207.197 42.3756 207.828 45.4766C201.045 41.2616 203.672 51.9113 204.694 53.5408L208.02 60.7486L247.285 57.9802C246.736 57.5978 243.61 53.8983 240.293 54.1227C242.92 52.4434 242.272 49.0016 239.113 48.4612Z" fill="url(#paint9_linear_1_12692)"/>
<path d="M247.387 57.9799H247.301C247.363 58.0267 247.394 58.0345 247.387 57.9799Z" fill="url(#paint10_linear_1_12692)"/>
<path d="M599.34 52.9921C601.419 50.656 599.889 49.0432 596.513 48.6525C601.061 45.5266 604.054 37.5871 596.164 36.4398C598.126 30.321 600.762 22.2485 594.452 17.7176C589.272 13.9931 583.76 16.1879 580.776 21.2758C578.872 17.6511 578.581 11.8232 572.82 13.2532C568.971 14.2092 567.89 18.8815 567.058 22.2319C562.727 19.1392 558.163 26.8708 559.443 30.3293C557.722 30.8198 556.949 32.4243 556.051 32.9398L547.447 52.485C546.233 58.3045 542.018 62.4613 548.353 66.7594C552.709 69.7024 561.813 67.7571 566.468 67.5492C580.743 66.9257 599.257 69.054 612.534 62.6276C611.312 58.8782 603.597 53.1917 599.34 52.9921Z" fill="url(#paint11_linear_1_12692)"/>
<path d="M589.289 49.0352C591.559 46.7158 594.202 38.0031 587.767 41.3867C589.222 37.7869 592.215 24.9923 586.105 23.579C580.659 22.3153 578.124 30.0137 576.128 32.4995C575.098 29.2489 574.042 23.8949 569.793 25.7821C565.545 27.6693 565.637 35.5672 566.285 39.4081C562.793 39.2501 563.292 43.4818 563.791 46.059C558.312 42.4841 560.249 51.2466 561.073 52.6018L563.666 58.5543L595.84 57.0163C595.399 56.692 592.905 53.6077 590.195 53.6908C592.332 52.3773 591.858 49.5424 589.289 49.0352Z" fill="url(#paint12_linear_1_12692)"/>
<path d="M595.894 56.9828H595.824C595.894 57.0219 595.894 57.0297 595.894 56.9828Z" fill="url(#paint13_linear_1_12692)"/>
<path d="M70.0305 70.4512C72.2586 68.7885 72.9403 67.1258 76.3738 68.0153C76.1992 68.4144 75.9415 65.6376 75.9415 65.621C77.2716 65.621 79.2669 64.7065 80.755 64.507C79.375 60.3502 81.8774 59.6685 85.7432 61.0319C85.4023 58.8039 86.3334 55.9191 86.1672 53.9072C88.9279 53.7148 91.6792 54.3953 94.0318 55.8525C92.8763 48.9024 100.758 39.1506 103.31 49.7005C105.554 43.1411 113.186 38.71 114.051 48.4119C119.039 43.8976 129.082 46.5247 123.537 53.8989C128.059 52.6186 131.534 54.5473 129.281 59.3692C133.438 57.1578 136.165 58.6958 134.96 62.8859C139.723 61.2231 144.886 63.6257 145.701 67.9571L70.0305 70.4512Z" fill="url(#paint14_linear_1_12692)"/>
<path d="M218.012 60.4746C220.016 60.3333 221.537 59.0031 223.749 59.3107C223.233 58.0471 223.483 56.6587 223.133 55.6112C224.705 56.0102 226.459 55.4366 228.072 56.0435C227.456 53.6325 228.662 51.6955 228.72 49.7501C229.926 50.4235 232.586 50.4484 233.708 51.0886C232.628 43.5315 238.173 39.9068 242.022 47.8297C242.579 41.3035 249.063 39.7738 249.853 47.123C253.129 42.4341 260.91 40.9876 258.898 49.3427C262.773 47.8795 267.212 49.5589 263.837 53.275C267.353 52.2691 268.592 53.5494 270.579 55.3368C272.143 55.2587 273.705 55.5377 275.145 56.1528C276.586 56.7678 277.867 57.7028 278.893 58.8867C279.84 60.6076 278.502 58.8867 277.92 58.8119L218.012 60.4746Z" fill="url(#paint15_linear_1_12692)"/>
<path d="M507.816 59.3024C514.849 55.8024 523.478 57.4734 531.044 55.3867C530.961 54.3309 530.503 53.1088 530.412 52.0613C533.945 52.1029 535.059 50.066 538.8 51.6955C538.393 50.3903 538.293 48.0375 537.869 46.99C539.831 47.8214 542.857 47.5719 545.094 48.8855C543.015 44.471 544.52 42.0268 546.449 38.5434C548.112 40.098 550.755 40.7548 552.451 42.7002C554.812 34.5778 562.577 23.2215 565.479 39.2999C571.065 30.9863 585.024 32.5992 579.013 45.1195C583.71 43.6147 583.652 46.3249 587.659 46.9983C586.296 48.6029 586.121 51.1551 584.209 52.9508C588.69 53.7822 587.709 54.8879 589.297 55.8856C594.601 57.0994 599.672 61.8796 598.841 65.5127L507.816 59.3024Z" fill="url(#paint16_linear_1_12692)"/>
<defs>
<linearGradient id="paint0_linear_1_12692" x1="127.178" y1="53.6739" x2="127.178" y2="9.07975" gradientUnits="userSpaceOnUse">
<stop stop-color="#E4902A"/>
<stop offset="1" stop-color="#EC9268"/>
</linearGradient>
<linearGradient id="paint1_linear_1_12692" x1="128.35" y1="56.9076" x2="128.35" y2="26.1972" gradientUnits="userSpaceOnUse">
<stop stop-color="#DE8111"/>
<stop offset="1" stop-color="#E67E4C"/>
</linearGradient>
<linearGradient id="paint2_linear_1_12692" x1="539.583" y1="56.0709" x2="558.831" y2="15.971" gradientUnits="userSpaceOnUse">
<stop stop-color="#E4902A"/>
<stop offset="1" stop-color="#EC9268"/>
</linearGradient>
<linearGradient id="paint3_linear_1_12692" x1="537.317" y1="58.5525" x2="550.572" y2="30.9371" gradientUnits="userSpaceOnUse">
<stop stop-color="#DE8111"/>
<stop offset="1" stop-color="#E67E4C"/>
</linearGradient>
<linearGradient id="paint4_linear_1_12692" x1="266.18" y1="51.1964" x2="266.18" y2="19.4717" gradientUnits="userSpaceOnUse">
<stop stop-color="#E4902A"/>
<stop offset="1" stop-color="#EC9268"/>
</linearGradient>
<linearGradient id="paint5_linear_1_12692" x1="266.314" y1="52.2526" x2="266.314" y2="32.3915" gradientUnits="userSpaceOnUse">
<stop stop-color="#DE8111"/>
<stop offset="1" stop-color="#E67E4C"/>
</linearGradient>
<linearGradient id="paint6_linear_1_12692" x1="73.3893" y1="70.0351" x2="73.3893" y2="10.8673" gradientUnits="userSpaceOnUse">
<stop stop-color="#F79C2D"/>
<stop offset="1" stop-color="#FF9E70"/>
</linearGradient>
<linearGradient id="paint7_linear_1_12692" x1="77.463" y1="64.5898" x2="77.463" y2="30.2547" gradientUnits="userSpaceOnUse">
<stop stop-color="#F7BB39"/>
<stop offset="1" stop-color="#FFAA6B"/>
</linearGradient>
<linearGradient id="paint8_linear_1_12692" x1="226.583" y1="56.3181" x2="226.583" y2="4.77377" gradientUnits="userSpaceOnUse">
<stop stop-color="#F79C2D"/>
<stop offset="1" stop-color="#FF9E70"/>
</linearGradient>
<linearGradient id="paint9_linear_1_12692" x1="225.32" y1="50.1072" x2="225.32" y2="17.2353" gradientUnits="userSpaceOnUse">
<stop stop-color="#F7BB39"/>
<stop offset="1" stop-color="#FFAA6B"/>
</linearGradient>
<linearGradient id="paint10_linear_1_12692" x1="247.348" y1="58.0033" x2="247.348" y2="57.9799" gradientUnits="userSpaceOnUse">
<stop stop-color="#F7BB39"/>
<stop offset="1" stop-color="#FFAA6B"/>
</linearGradient>
<linearGradient id="paint11_linear_1_12692" x1="580.257" y1="52.7865" x2="581.101" y2="10.6033" gradientUnits="userSpaceOnUse">
<stop stop-color="#F79C2D"/>
<stop offset="1" stop-color="#FF9E70"/>
</linearGradient>
<linearGradient id="paint12_linear_1_12692" x1="579.328" y1="47.6866" x2="579.866" y2="20.7838" gradientUnits="userSpaceOnUse">
<stop stop-color="#F7BB39"/>
<stop offset="1" stop-color="#FFAA6B"/>
</linearGradient>
<linearGradient id="paint13_linear_1_12692" x1="597.137" y1="54.6654" x2="597.138" y2="54.642" gradientUnits="userSpaceOnUse">
<stop stop-color="#F7BB39"/>
<stop offset="1" stop-color="#FFAA6B"/>
</linearGradient>
<linearGradient id="paint14_linear_1_12692" x1="107.857" y1="63.6673" x2="107.857" y2="42.7337" gradientUnits="userSpaceOnUse">
<stop stop-color="#FF8D00"/>
<stop offset="1" stop-color="#FF7946"/>
</linearGradient>
<linearGradient id="paint15_linear_1_12692" x1="248.598" y1="56.0019" x2="248.598" y2="42.2097" gradientUnits="userSpaceOnUse">
<stop stop-color="#FF8D00"/>
<stop offset="1" stop-color="#FF7946"/>
</linearGradient>
<linearGradient id="paint16_linear_1_12692" x1="553.374" y1="57.1243" x2="553.374" y2="31.1277" gradientUnits="userSpaceOnUse">
<stop stop-color="#FF8D00"/>
<stop offset="1" stop-color="#FF7946"/>
</linearGradient>
</defs>
</svg>
