<svg width="750" height="827" viewBox="0 0 750 827" fill="none" xmlns="http://www.w3.org/2000/svg">
<path d="M1216.3 26.2243V836.999H-433.324V0.809631C-356.207 3.30371 -196.511 10.3952 -79.6139 28.6186C80.007 53.5011 518.965 115.703 794.976 49.3527C915.781 20.3133 1074.81 18.2848 1216.3 26.2243Z" fill="#D29639"/>
<path d="M-93.5564 44.5725C-93.5564 77.8269 121.433 104.804 386.628 104.804C651.824 104.804 866.821 77.8352 866.821 44.5725C866.821 39.709 862.207 34.9786 853.52 30.4394C833.226 33.0499 813.614 36.1342 794.967 39.734C526.022 91.5776 102.37 45.5535 -66.8116 24.6947C-84.1537 30.9216 -93.5564 37.6306 -93.5564 44.5725Z" fill="url(#paint0_radial_1_12764)"/>
<path d="M-280.836 359.475C-332.131 333.703 -383.285 313.909 -433.324 299.792V837H161.181C96.6173 651.673 -66.2376 467.236 -280.836 359.475Z" fill="url(#paint1_radial_1_12764)"/>
<path d="M1216.3 319.944C1183.26 330.222 1150.87 342.488 1119.31 356.673C895.055 457.143 718.366 644.731 645.573 836.999H1216.3V319.944Z" fill="url(#paint2_radial_1_12764)"/>
<path d="M55.7369 567.831C56.4472 553.045 27.3806 539.635 -9.18501 537.879C-45.7506 536.123 -75.9687 546.685 -76.6789 561.471C-77.3891 576.257 -48.3226 589.667 -11.7569 591.423C24.8087 593.18 55.0267 582.617 55.7369 567.831Z" fill="url(#paint3_radial_1_12764)"/>
<path d="M241.75 632.69C242.147 624.425 225.895 616.93 205.45 615.948C185.005 614.966 168.109 620.869 167.712 629.133C167.315 637.398 183.567 644.893 204.012 645.875C224.457 646.857 241.353 640.954 241.75 632.69Z" fill="url(#paint4_radial_1_12764)"/>
<path d="M578.158 624.585C614.782 623.344 644.244 615.635 643.964 607.366C643.684 599.097 613.767 593.399 577.144 594.64C540.52 595.88 511.058 603.589 511.338 611.859C511.618 620.128 541.535 625.825 578.158 624.585Z" fill="url(#paint5_radial_1_12764)"/>
<path d="M753.781 569.467C779.395 568.711 799.961 561.394 799.717 553.124C799.473 544.854 778.511 538.762 752.897 539.518C727.284 540.273 706.717 547.59 706.961 555.861C707.205 564.131 728.167 570.223 753.781 569.467Z" fill="url(#paint6_radial_1_12764)"/>
<path d="M-212.632 152.807C-212.632 152.807 -289.117 162.783 -305.745 209.339C-305.745 209.339 -329.023 215.99 -329.023 239.268C-329.023 262.546 -319.046 292.475 -299.094 309.103C-279.141 325.73 -259.189 345.682 -249.212 365.635C-239.236 385.588 -199.331 408.866 -176.053 415.517C-152.775 422.167 -69.6387 452.096 -56.3369 475.374C-43.0352 498.652 36.7753 538.558 56.7279 541.883C76.6805 545.209 40.1007 588.439 209.698 601.741C379.295 615.043 459.106 605.066 505.662 578.463C552.218 551.859 648.655 538.558 705.188 531.907C761.72 525.256 851.507 495.327 864.809 472.049C878.111 448.771 931.318 435.469 964.572 435.469C997.826 435.469 1027.76 368.96 1061.01 358.984C1094.26 349.008 1144.15 312.428 1137.49 295.801C1130.84 279.174 1147.47 252.57 1134.17 235.943C1120.87 219.316 1120.87 209.339 1120.87 196.038C1120.87 182.736 1097.59 179.411 1070.99 169.434C1044.38 159.458 974.548 166.109 941.294 152.807C908.04 139.505 655.306 119.553 595.449 119.553C535.591 119.553 262.905 102.926 213.023 119.553C163.142 136.18 56.7279 126.204 20.1481 126.204C-16.4317 126.204 -62.9878 129.529 -96.2422 139.505L-212.632 152.807Z" fill="#FFA453"/>
<path d="M740.106 403.047L734.286 405.541C741.901 403.504 749.891 405.541 757.564 405.541C766.011 405.541 774.191 403.13 782.455 402.772C795.266 402.224 807.479 404.942 820.698 402.373C834.972 399.597 850.518 393.229 863.928 387.559C840.825 392.688 814.496 397.186 790.71 397.202C773.809 397.261 756.35 397.992 740.106 403.047Z" fill="url(#paint7_radial_1_12764)"/>
<path d="M739.515 443.784C749.017 445.671 755.726 452.795 766.551 452.862C778.057 452.929 792.614 451.133 803.288 447.109L776.685 446.278C765.129 444.806 751.752 443.401 739.515 443.784Z" fill="url(#paint8_radial_1_12764)"/>
<path d="M735.858 382.77C743.897 387.16 755.445 382.404 765.022 381.241C756.01 376.144 735.467 376.02 724.477 373.925C711.175 371.43 700.367 373.093 686.899 373.093L665.284 373.925C669.881 377.075 684.779 378.173 691.455 378.913C698.185 379.677 704.966 379.902 711.732 379.586C711.466 378.713 711.482 377.325 711.058 376.327C722.315 372.204 727.511 378.198 735.858 382.77Z" fill="url(#paint9_radial_1_12764)"/>
<path d="M445.123 219.167C452.373 217.504 462.998 219.025 470.563 220.081C479.084 221.27 490.216 221.553 497.998 225.069C487.897 230.057 475.426 229.035 464.552 228.619C460.329 228.461 442.621 230.282 441.69 228.42L447.509 238.396C463.122 238.396 477.23 236.733 491.995 231.745C511.757 225.094 532.882 225.926 553.325 223.024C517.576 216.889 479.517 221.361 444.084 214.42C443.933 216.071 444.296 217.729 445.123 219.167Z" fill="url(#paint10_radial_1_12764)"/>
<path d="M522.897 216.008C489.518 211.202 459.713 198.117 425.021 201.043L440.817 209.357C450.926 215.384 470.031 212.965 482.035 214.345C495.853 215.891 509.229 215.135 522.897 216.008Z" fill="url(#paint11_radial_1_12764)"/>
<path d="M166.476 224.97C170.965 220.04 185.322 220.381 192.156 218.685C185.663 217.463 178.855 217.189 172.586 215.235C172.819 216.274 172.811 217.447 172.993 218.353C162.651 220.281 136.597 214.936 129.879 224.172C139.274 225.128 148.543 226.716 157.971 227.639C166.725 228.47 177.2 227.797 185.589 230.133H217.18C201.426 225.735 181.332 231.787 166.476 224.97Z" fill="url(#paint12_radial_1_12764)"/>
<path d="M229.119 207.229C209.607 206.281 189.887 205.998 170.708 203.645C180.934 213.148 201.468 209.681 213.856 216.797L255.041 207.993C246.037 208.467 236.385 207.611 229.119 207.229Z" fill="url(#paint13_radial_1_12764)"/>
<path d="M255.041 207.993C261.401 207.661 267.428 206.663 272.051 204.352L255.041 207.993Z" fill="url(#paint14_radial_1_12764)"/>
<path d="M153.998 247.583C151.886 241.622 129.847 241.913 123.379 241.015C134.453 249.196 151.263 252.155 163.974 257.559L153.998 247.583Z" fill="url(#paint15_radial_1_12764)"/>
<path d="M118.349 344.818C113.951 349.657 101.905 347.412 95.2288 347.313C116.013 357.48 138.16 348.144 159.817 348.975L138.202 332.348C104.889 331.949 71.8177 335.923 38.6631 336.505C54.4589 339.564 71.3023 339.14 87.3226 339.83C96.9331 340.246 111.756 335.624 118.349 344.818Z" fill="url(#paint16_radial_1_12764)"/>
<path d="M173.95 367.299C149.666 365.636 121.034 367.399 97.8637 375.446C102.087 376.577 110.567 374.74 111.548 379.603C104.215 383.003 88.6357 383.693 85.9753 392.489C85.3518 394.542 88.4195 397.585 87.347 400.57C85.7591 405.009 78.8672 407.121 75.2424 408.717C87.7128 410.28 103.276 407.304 115.522 404.752C105.903 400.952 93.3495 401.609 88.2033 390.56C104.523 375.188 137.852 382.064 158.154 378.921L173.95 367.299Z" fill="url(#paint17_radial_1_12764)"/>
<path d="M85.07 438.795C64.2195 441.871 42.1386 438.795 22.0696 435.595C28.9366 440.217 34.1243 444.074 42.6374 443.709C52.6137 443.285 62.59 442.952 72.6494 442.952C82.5592 442.952 91.5878 442.561 100.916 439.411C108.572 436.842 115.938 434.339 124.044 432.926C134.572 431.15 145.234 430.296 155.91 430.374C164.282 430.374 181.441 435.362 188.059 427.988L158.961 424.662C137.82 414.96 106.918 435.561 85.07 438.795Z" fill="url(#paint18_radial_1_12764)"/>
<path d="M54.933 411.851C45.4555 403.097 31.5635 398.782 21.5789 390.66C26.168 382.695 44.0256 376.069 52.5138 371.306C60.7608 366.675 79.5911 363.591 83.1161 355.859C62.8974 360.116 43.294 360.29 22.5848 362.327C10.8377 363.474 -2.2562 365.569 -13.9368 365.553C-23.9796 365.553 -36.0094 360.257 -44.6971 367.299L-54.6734 365.636C-61.0749 367.739 -68.0416 366.467 -74.4514 369.377C-55.4964 386.561 -42.8598 421.645 -15.3335 415.493C7.73674 410.346 30.4328 413.58 54.933 411.851Z" fill="url(#paint19_radial_1_12764)"/>
<path d="M75.742 373.234C65.641 371.904 55.7395 379.478 46.5696 382.446C44.0007 383.277 24.4472 390.244 34.2821 393.902L41.7644 398.059C45.1812 402.457 61.6006 404.618 67.2621 402.066C63.4628 395.099 51.1088 393.253 58.9485 384.74C63.2134 380.151 75.1767 380.658 75.742 373.234Z" fill="url(#paint20_radial_1_12764)"/>
<path d="M65.0416 392.238L71.6925 387.25C67.7518 383.476 59.1889 387.042 65.0416 392.238Z" fill="url(#paint21_radial_1_12764)"/>
<path d="M-3.14654 360.016C7.81077 358.985 18.4272 355.277 29.2765 353.997L40.0841 349.84C31.4131 345.051 25.4356 347.57 15.6339 349.757C9.56496 351.112 3.56251 352.384 -2.7475 352.326C-8.07651 352.276 -19.2583 347.737 -23.889 350.663C-36.7002 358.636 -7.76889 360.456 -3.14654 360.016Z" fill="url(#paint22_radial_1_12764)"/>
<path d="M27.6311 418.012L11.0039 418.843C10.3305 419.741 9.73187 419.375 9.45752 420.29C17.4219 425.111 29.5265 423 38.6548 423C50.6264 423 63.0885 423.831 74.8523 422.168C61.2762 419.558 41.0991 414.054 27.6311 418.012Z" fill="url(#paint23_radial_1_12764)"/>
<path d="M566.219 373.65L583.81 375.612C622.344 379.919 655.856 398.317 693.126 405.541C704.989 407.836 733.954 410.305 724.376 423.831C720.095 429.875 702.296 432.51 695.728 435.57C717.451 438.895 790.569 441.672 804.777 424.288C775.48 402.59 729.123 414.428 697.706 401.384C660.154 385.796 609.799 370.067 566.219 373.65Z" fill="url(#paint24_radial_1_12764)"/>
<path d="M552.468 375.487C557.017 374.638 561.607 374.025 566.219 373.65L553.882 372.286C550.235 374.232 549.764 375.299 552.468 375.487Z" fill="url(#paint25_radial_1_12764)"/>
<path d="M689.151 431.696C709.228 427.705 696.841 419.126 686.898 415.526C674.935 411.178 645.654 397.369 635.354 400.561L615.401 398.899C632.161 402.349 658.915 418.602 672.848 427.996C691.188 440.408 698.537 445.762 723.42 448.398C713.028 443.268 697.706 442.138 689.151 431.696Z" fill="url(#paint26_radial_1_12764)"/>
<path d="M683.574 382.263L713.503 390.576C725.142 401.442 754.888 392.863 770.725 392.239C794.411 391.3 822.003 390.385 844.384 382.171C812.443 381.905 779.829 388.723 748.777 388.581C728.176 388.465 704.424 381.398 683.574 382.263Z" fill="url(#paint27_radial_1_12764)"/>
<path d="M554.655 250.118C560.011 249.801 565.322 248.952 570.509 247.583L554.655 250.118Z" fill="url(#paint28_radial_1_12764)"/>
<path d="M564.897 287.812C548.561 277.719 526.388 276.83 512.122 264.293C515.705 258.74 522.29 255.979 528.941 254.234L554.655 250.118C545.393 250.808 536.099 250.675 526.862 252.538C509.038 256.121 493.284 265.839 474.221 264.493C484.089 273.28 493.666 295.045 508.764 293.923C509.595 284.279 500.758 280.247 500.932 271.069C512.679 270.071 555.561 289.034 537.304 303.774C543.294 304.23 549.309 304.258 555.303 303.857C556.301 297.847 560.333 292.243 564.897 287.812Z" fill="url(#paint29_radial_1_12764)"/>
<path d="M545.568 239.269C530.163 243.26 501.314 239.169 494.331 257.351C507.674 251.124 525.008 249.603 537.254 244.257L545.568 239.269Z" fill="url(#paint30_radial_1_12764)"/>
<path d="M132.707 216.033C106.934 207.054 55.4484 209.939 33.4507 217.654H58.3915C61.9663 221.453 91.3964 223.033 101.248 226.425C112.205 230.191 123.57 235.728 135.841 238.388C151.57 241.805 186.13 246.702 200.895 237.981C171.681 233.192 130.088 234.248 103.343 220.522C111.707 215.309 123.212 218.627 132.707 216.033Z" fill="url(#paint31_radial_1_12764)"/>
<path d="M91.6458 206.015L111.598 207.677C132.249 207.037 151.504 209.831 172.537 209.423C148.436 198.807 117.243 199.563 91.6458 206.015Z" fill="url(#paint32_radial_1_12764)"/>
<path d="M188.083 196.039C176.635 194.683 167.133 187.9 155.302 192.796C164.938 192.43 174.424 196.454 183.095 199.364L188.083 196.039Z" fill="url(#paint33_radial_1_12764)"/>
<path d="M81.6691 157.796H56.7284C55.2336 157.858 53.7363 157.817 52.2473 157.671C63.8863 166.816 71.2522 163.832 84.9613 164.53C98.6704 165.228 110.151 171.455 121.541 170.724C149.209 168.944 180.568 163.433 206.34 154.753C186.088 159.342 162.352 160.373 141.544 161.121C121.907 161.82 100.292 155.302 81.6691 157.796Z" fill="url(#paint34_radial_1_12764)"/>
<path d="M44.9567 169.144C41.2571 164.929 35.6122 162.069 30.1335 159.301C27.0242 160.215 27.8223 161.795 26.8081 164.447L-6.44629 176.086C6.58942 173.21 29.0694 168.471 44.9567 169.144Z" fill="url(#paint35_radial_1_12764)"/>
<path d="M186.421 166.109L203.048 169.435C201.003 161.562 193.238 158.843 186.421 166.109Z" fill="url(#paint36_radial_1_12764)"/>
<path d="M60.0533 177.749C58.9227 175.254 54.9072 171.031 53.4025 167.897C50.5592 170.84 44.7563 172.195 41.7634 174.423L60.0533 177.749Z" fill="url(#paint37_radial_1_12764)"/>
<path d="M650.202 373.318C654.982 370.957 660.237 369.311 665.283 367.299L650.319 362.311C649.562 365.495 650.327 370.009 650.202 373.318Z" fill="url(#paint38_radial_1_12764)"/>
<path d="M470.745 246.544C466.846 250.177 468.708 251.756 469.082 255.896L474.012 251.948C472.797 250.225 471.705 248.42 470.745 246.544Z" fill="url(#paint39_radial_1_12764)"/>
<path d="M477.397 249.246L474.013 251.948C474.154 252.164 474.287 252.38 474.404 252.571C476.066 252.272 477.064 251.158 477.397 249.246Z" fill="url(#paint40_radial_1_12764)"/>
<path d="M544.354 162.526C558.712 155.376 571.839 150.604 587.585 158.868C590.876 155.395 593.876 151.658 596.555 147.694C580.685 148.06 564.772 147.819 548.885 147.819L532.258 152.807C535.525 153.19 541.519 157.787 544.354 162.526Z" fill="url(#paint41_radial_1_12764)"/>
<path d="M517.301 162.784H532.266C529.622 158.045 520.244 155.684 517.301 162.784Z" fill="url(#paint42_radial_1_12764)"/>
<path d="M70.5378 430.864C85.228 434.722 109.163 427.273 124.102 423.041C138.834 418.885 151.446 420.015 166.502 417.222L188.117 403.92C165.77 407.487 138.734 406.248 118.241 413.481C102.504 418.976 87.6638 427.331 70.5378 430.864Z" fill="url(#paint43_radial_1_12764)"/>
<path d="M177.725 389.853C180.174 389.258 182.548 388.385 184.799 387.251L177.725 389.853Z" fill="url(#paint44_radial_1_12764)"/>
<path d="M153.166 398.89L177.725 389.853C159.484 394.8 120.71 397.103 111.407 391.233C121.192 398.092 142.758 400.403 153.166 398.89Z" fill="url(#paint45_radial_1_12764)"/>
<path d="M69.8472 327.476C96.3758 324.018 134.452 324.067 164.805 324.067L123.237 307.44C107.441 317.034 86.5824 320.617 69.8472 327.476Z" fill="url(#paint46_radial_1_12764)"/>
<path d="M936.754 350.223C913.8 354.23 891.188 353.656 868.009 355.626C854.89 356.74 841.722 357.946 828.395 357.372C804.286 356.341 773.243 360.648 750.122 353.964H740.213C755.543 356.05 772.145 359.642 781.673 360.523C794.293 361.695 807.12 365.678 819.524 365.22C832.726 364.738 846.71 359.883 859.862 359.093C882.724 357.713 903.841 358.262 926.462 357.289C951.877 356.15 971.422 346.615 995.698 342.325C976.335 342.557 955.693 346.947 936.754 350.223Z" fill="url(#paint47_radial_1_12764)"/>
<path d="M710.177 353.996H740.172C727.943 352.325 716.528 351.61 710.177 353.996Z" fill="url(#paint48_radial_1_12764)"/>
<path d="M792.838 375.238C782.388 372.287 735.474 358.17 731.791 365.636L718.49 367.299C743.048 370.233 767.989 377.059 792.838 375.238Z" fill="url(#paint49_radial_1_12764)"/>
<path d="M788.324 192.713L819.916 186.062C770.375 189.147 725.598 185.514 677.753 201.143C695.569 196.562 716.345 196.853 734.81 194.559C750.822 192.572 772.62 187.692 788.324 192.713Z" fill="url(#paint50_radial_1_12764)"/>
<path d="M780.011 182.737L818.253 172.76C789.696 172.76 766.268 176.161 738.958 181.431C751.512 183.95 766.975 177.79 780.011 182.737Z" fill="url(#paint51_radial_1_12764)"/>
<path d="M13.0405 372.486C18.5358 371.779 23.2164 367.572 28.1713 365.544C12.2258 370.723 -12.5653 369.817 -28.9015 368.129L-45.5287 370.624C-40.6237 370.898 -33.1581 375.412 -27.0476 376.668C-18.5262 378.422 -11.5427 373.858 -3.3954 372.17C2.74834 370.898 7.22101 373.242 13.0405 372.486ZM-8.11752 377.274C-10.1377 379.178 -0.469025 378.729 1.95854 376.443C-0.726746 372.311 -5.12463 373.974 -8.11752 377.274ZM-6.4548 399.721L-8.94888 398.058C-8.11752 402.922 0.694885 406.172 3.52151 402.215C0.886093 399.272 -2.85501 397.393 -6.4548 399.721ZM-14.7684 392.239V389.745C-26.7067 394.558 -19.3076 400.935 -14.7684 392.239ZM-28.835 389.845C-28.8854 390.275 -28.8433 390.711 -28.7114 391.124C-28.5795 391.537 -28.3608 391.917 -28.0701 392.239L-24.7447 388.913C-26.176 388.716 -27.63 389.047 -28.835 389.845ZM32.6191 371.455C32.5526 370.1 32.9433 369.368 31.8708 368.42C29.2754 369.238 26.7463 370.252 24.3055 371.455H32.6191ZM92.4769 214.328H75.8498C79.7488 217.653 86.3498 219.491 91.6456 220.148C103.31 221.594 107.3 214.12 92.4769 214.328ZM65.0421 217.653L72.5243 219.316C72.8153 215.991 65.5492 213.222 65.0421 217.653ZM-112.037 364.804C-109.444 368.47 -104.297 369.618 -100.698 367.107C-104.741 364.19 -109.55 362.522 -114.532 362.31L-112.037 364.804ZM-6.33846 356.49C-9.02374 353.389 -14.4525 353.996 -15.5997 354.828L-19.7565 355.659C-16.4893 358.652 -9.83015 359.367 -6.33846 356.482V356.49ZM6.01559 357.322L11.8351 356.49C9.78995 352.841 7.45383 353.946 6.01559 357.322ZM-97.9043 339.863L-101.23 341.526C-96.3247 343.247 -89.5907 344.436 -84.694 341.36C-86.1572 336.546 -94.6454 337.037 -97.9043 339.863ZM-109.543 343.189C-109.311 342.49 -108.113 342.399 -108.82 340.811C-112.295 340.478 -114.64 341.36 -113.7 344.02L-109.543 343.189ZM127.394 206.014L142.358 206.846C138.077 203.362 132.174 202.157 127.394 206.014ZM115.647 167.639C115.115 164.313 111.665 162.651 108.273 161.952L102.453 162.784C105.18 167.09 110.808 168.454 115.647 167.639ZM93.3083 162.784V161.952C91.1468 159.932 88.7358 159.117 86.5826 161.121C88.1372 163.881 90.4318 164.122 93.3083 162.784ZM138.908 164.563C136.916 164.63 134.966 165.159 133.214 166.109L138.95 165.469C138.925 165.145 138.908 164.829 138.908 164.563ZM140.696 165.278L138.95 165.469C138.988 165.963 139.058 166.455 139.158 166.941C139.564 166.878 139.937 166.679 140.217 166.377C140.496 166.076 140.665 165.688 140.696 165.278ZM775.746 419.524C770.849 410.279 741.61 407.777 730.329 410.271L730.961 412.191C736.855 415.991 728.666 420.996 727.743 425.36C737.578 426.192 742.841 422.118 750.913 419.657C758.986 417.196 767.474 420.829 775.746 419.524ZM729.19 410.562C729.547 410.462 729.93 410.362 730.337 410.271L730.138 409.697C729.805 410.08 728.184 410.628 729.182 410.562H729.19ZM764.223 423.032H756.741C756.533 430.174 783.453 435.395 787.551 427.63C792.515 418.169 767.283 423.581 764.215 422.999L764.223 423.032ZM748.428 426.358C741.877 431.961 758.944 436.525 750.922 425.526L748.428 426.358ZM834.889 359.849L807.454 361.512C814.845 365.935 828.147 366.442 834.881 359.816L834.889 359.849ZM742.608 390.609L721.824 389.778C724.568 398.524 737.179 393.453 742.6 390.576L742.608 390.609ZM670.28 416.381L668.617 415.55C671.81 418.876 677.164 429.974 682.335 430.057C687.107 430.141 688.029 426.108 686.142 422.824C683.698 418.568 674.403 418.094 670.272 416.348L670.28 416.381ZM650.327 406.53C642.903 411.186 661.002 418.668 665.292 417.213H663.629C662.058 412.865 656.729 402.473 650.327 406.497V406.53ZM679.957 399.813C678.028 395.207 672.416 394.492 667.777 394.766L664.452 393.935C668.226 396.678 675.709 402.149 679.957 399.779V399.813ZM638.106 387.442C639.944 390.003 642.354 390.535 645.331 389.778L653.644 392.272C651.599 387.292 642.912 384.873 638.106 387.409V387.442ZM657.07 367.348C657.081 367.035 657.01 366.725 656.864 366.448C656.718 366.17 656.502 365.936 656.238 365.768C653.994 365.527 652.472 366.6 651.167 368.163L655.324 368.994C655.823 368.262 656.72 368.454 657.07 367.315V367.348ZM534.028 277.628C538.243 283.713 542.342 290.971 546.382 297.497L551.37 295.834C562.935 287.155 540.53 280.67 534.045 277.594L534.028 277.628ZM501.406 266.063C495.636 265.008 490.34 267.618 484.978 269.389C485.693 274.917 495.678 286.631 499.826 286.706L500.658 285.875C498.629 278.725 494.323 271.634 501.422 266.03L501.406 266.063ZM504.814 249.278L503.152 250.11C503.06 252.421 520.71 247.99 523.936 244.448C517.027 241.755 510.659 246.119 504.831 249.245L504.814 249.278ZM914.674 354.03L903.867 356.524C914.516 356.524 930.13 358.294 939.283 352.508C930.936 352.001 922.938 354.479 914.691 353.996L914.674 354.03ZM784.982 388.947L778.332 390.609C789.43 391.15 805.525 390.293 814.862 384.948C806.099 383.709 793.097 385.405 784.999 388.913L784.982 388.947ZM110.135 423.032C132.997 421.37 155.394 411.086 178.922 411.393L155.644 409.731C140.571 409.315 123.27 415.509 110.152 423.032H110.135ZM36.144 367.331C37.3745 367.639 38.8459 368.645 39.9849 368.944C39.3863 371.871 36.9338 373.841 34.2485 375.645L26.2425 380.982C14.7282 382.753 -1.35028 385.206 -7.41089 391.432C-3.92749 395.722 2.52388 393.411 7.16287 395.988C11.5774 398.482 12.3173 403.529 16.3078 406.014C19.5834 408.068 29.1107 408.625 28.3376 402.431C28.0133 399.854 16.8232 393.07 14.4622 391.274C15.4324 388.918 17.1345 386.936 19.3173 385.621L33.4504 379.802C31.7046 380.134 29.6262 380.459 27.3399 380.816C38.1476 375.662 50.9589 370.84 59.9957 364.131C52.2641 365.71 43.8091 364.546 36.1773 367.298L36.144 367.331ZM-58.049 387.359C-59.4207 392.588 -56.7354 408.974 -50.5168 411.36L-44.6973 398.058C-40.5405 394.218 -33.4823 389.994 -31.487 384.906C-40.765 380.109 -50.8494 376.426 -60.2604 372.187C-50.334 380.251 -39.1854 391.025 -58.049 387.359ZM137.37 317.417L122.406 314.922C118.066 313.492 105.937 316.918 104.947 321.399C114.408 324.683 128.076 319.719 137.37 317.417ZM134.045 235.27C145.642 243.243 165.637 240.366 178.938 246.751L164.805 238.437C155.195 235.112 144.104 234.439 134.037 235.27H134.045ZM-200.993 329.887H-205.981C-198.441 333.861 -188.157 337.477 -180.4 332.381C-185.579 329.288 -194.808 329.704 -200.993 329.887ZM-219.15 340.819C-219.682 345.807 -214.993 349.041 -210.138 348.177L-209.306 344.851C-212.308 343.064 -215.284 340.462 -219.15 340.819ZM-199.33 357.322H-195.173C-193.893 354.553 -199.264 351.885 -199.33 357.322ZM-251.706 318.248H-252.537C-251.839 322.255 -238.454 333.886 -235.91 326.171C-233.956 320.118 -248.48 318.023 -251.706 318.248Z" fill="#FFA453"/>
<path d="M1134.17 235.943C1120.87 219.316 1120.87 209.34 1120.87 196.038C1120.87 182.736 1097.59 179.411 1070.99 169.434C1050.14 161.611 1002.71 164.006 967.174 159.001C963.324 161.115 959.609 163.467 956.051 166.043C993.861 178.754 1079.52 167.921 1092.6 220.081C1094.45 227.447 1088.44 228.719 1091.64 236.642C1094.13 242.91 1105.64 243.883 1106.14 252.612C1106.23 254.117 1097.83 263.927 1096.7 266.654C1096.41 267.352 1094.68 279.224 1094.56 280.787C1093.53 294.521 1091.7 301.895 1074.84 309.535C1065.59 313.692 1050.73 309.144 1042.74 315.288C1034.61 321.532 1041.75 320.916 1037.67 326.42C1023 346.231 1000.62 357.854 985.356 376.302C978.156 385.006 973.418 391.524 961.363 396.005C940.712 403.695 916.594 397.268 898.354 408.816C895.636 410.537 892.535 414.586 888.827 417.761C884.33 418.516 879.923 419.731 875.675 421.386C874.079 422.043 871.518 424.246 868.617 426.441C863.313 428.012 858.075 429.766 853.32 432.984C847.708 433.815 841.972 434.056 836.801 436.118C832.203 437.963 805.566 453.518 804.519 457.401C801.825 467.377 823.191 470.012 809.607 480.097C801.193 486.349 778.963 472.748 777.949 489.998C742.317 498.511 706.992 495.452 672.166 507.332C661.75 510.882 650.468 510.657 641.888 513.359C633.442 515.986 627.481 521.947 618.851 523.585C605.176 526.171 592.057 523.843 577.949 526.911C559.867 530.901 541.726 536.671 523.079 540.212C505.861 543.488 478.343 548.36 462.323 559.683C451.083 567.622 450.501 573.957 434.963 576.95C417.563 580.275 398.982 577.158 381.174 578.538C360.324 580.142 340.438 585.413 320.053 586.128C295.669 580.833 271.16 578.164 259.754 578.646C234.506 579.71 220.531 589.038 194.659 580.059C176.693 573.816 140.171 566.941 127.161 554.462C125.074 552.458 124.218 540.719 119.678 535.582C114.906 530.186 106.942 526.861 101.555 522.222C89.7827 512.104 73.7292 501.82 64.9168 491.021C58.108 482.707 62.6887 478.434 49.6198 471.9C42.1375 468.125 33.4332 466.08 25.8429 462.214C13.3725 455.854 0.0707703 445.462 -15.5421 440.391C-30.5898 435.511 -47.4913 433.042 -63.1291 430.415C-75.3252 428.395 -87.0556 428.062 -97.5557 420.513C-101.014 418.019 -101.289 412.649 -104.381 410.337C-108.638 407.153 -114.89 408.367 -119.637 405.175C-129.447 398.524 -138.06 386.768 -149.516 380.907C-163.807 373.6 -174.407 379.66 -187.717 376.825C-205.957 372.951 -216.207 351.801 -234.431 343.995C-261.541 332.356 -260.386 324.549 -273.155 300.091C-284.129 279.066 -296.949 250.874 -292.144 227.33C-266.072 225.609 -234.73 208.55 -210.72 200.951C-155.402 183.426 -98.7196 165.377 -41.4224 153.564C-20.5802 149.266 -0.170319 153.888 20.2811 152.733C28.5448 152.259 37.5983 150.022 46.7765 148.991C80.0309 145.242 115.006 147.603 149.034 146.073C181.041 144.635 214.711 149.557 245.688 134.11C245.214 132.788 243.983 131.924 243.568 130.652C253.793 123.743 280.073 118.464 289.533 126.129L308.596 112.129C264.252 112.42 228.279 114.399 213.048 119.478C163.167 136.105 56.7528 126.129 20.173 126.129C-16.4068 126.129 -62.9629 129.454 -96.2172 139.431L-212.608 152.733C-212.608 152.733 -289.093 162.709 -305.72 209.265C-305.72 209.265 -328.998 215.916 -328.998 239.194C-328.998 262.472 -319.021 292.401 -299.069 309.028C-279.116 325.655 -259.164 345.608 -249.187 365.56C-239.211 385.513 -199.306 408.791 -176.028 415.442C-152.75 422.093 -69.6137 452.022 -56.312 475.3C-43.0103 498.578 36.8002 538.483 56.7528 541.808C76.7055 545.134 40.1257 588.365 209.723 601.666C379.32 614.968 459.131 604.992 505.687 578.388C552.243 551.785 648.681 538.483 705.213 531.832C761.745 525.181 851.532 495.252 864.834 471.974C878.136 448.696 931.343 435.395 964.597 435.395C997.851 435.395 1027.78 368.886 1061.03 358.909C1094.29 348.933 1144.17 312.353 1137.52 295.726C1130.87 279.099 1147.47 252.57 1134.17 235.943ZM500.167 140.952C520.818 140.412 541.144 139.032 561.629 136.995C583.086 134.85 598.541 140.503 616.615 142.814C628.986 144.402 642.628 141.027 655.356 141.152C674.785 141.335 683.165 148.418 698.803 152.042C720.934 157.164 747.945 145.441 771.231 148.168C793.154 150.737 833.367 140.686 848.182 159.442L908.489 145.749C829.46 133.428 645.38 119.553 595.457 119.553C572.179 119.553 516.694 117.059 454.641 114.939C446.975 121.106 440.209 128.314 434.539 136.355C448.905 143.795 484.321 141.368 500.167 140.952Z" fill="#F4A14D"/>
<path d="M11.5194 139.573C21.4957 140.82 23.9898 137.079 31.472 138.326C38.9543 139.573 22.7428 134.585 53.9187 137.079C85.0947 139.573 80.0982 138.326 80.0982 138.326C80.0982 138.326 95.0627 137.079 101.298 140.82C107.533 144.561 123.745 149.549 129.98 148.302C136.215 147.055 143.697 142.067 153.674 140.82C163.65 139.573 168.638 134.585 186.096 135.832C203.555 137.079 238.472 127.103 238.472 127.103C238.472 127.103 238.472 122.114 247.201 120.867C255.931 119.62 270.895 122.114 274.636 122.114C277.413 122.114 290.432 118.689 294.988 112.354C256.953 112.944 226.667 115.006 213.033 119.554C163.151 136.181 56.737 126.205 20.1572 126.205C1.86731 126.205 -18.8585 127.036 -39.1935 129.106L-22.1423 138.326C-22.1423 138.326 1.54312 138.326 11.5194 139.573ZM1134.17 235.944C1120.87 219.317 1120.87 209.341 1120.87 196.039C1120.87 182.737 1097.59 179.412 1070.99 169.435C1044.38 159.459 974.549 166.11 941.295 152.808C908.04 139.506 655.307 119.554 595.449 119.554C578.972 119.554 546.333 118.29 506.669 116.81L517.792 123.361C517.792 123.361 538.992 124.608 546.474 127.103C553.956 129.597 536.498 128.35 568.921 128.35C601.344 128.35 595.109 125.855 595.109 125.855C595.109 125.855 611.32 127.103 615.061 132.091C618.802 137.079 613.814 137.079 631.273 137.079C648.731 137.079 654.966 134.585 664.943 135.832C674.919 137.079 694.872 134.585 704.848 135.832C714.824 137.079 762.212 137.079 775.921 140.82C789.63 144.561 797.12 142.067 800.862 142.067C804.603 142.067 808.344 137.079 814.579 140.82C820.814 144.561 832.038 144.561 839.52 147.055C847.002 149.549 987.909 168.255 999.141 169.502C1010.37 170.749 1021.59 175.737 1026.58 171.996C1039.05 180.725 1026.58 171.996 1049.02 170.749C1071.47 169.502 1056.5 171.996 1065.23 179.478C1073.95 186.96 1072.71 181.972 1087.67 184.466C1102.64 186.96 1097.65 190.701 1105.13 198.184C1112.61 205.666 1108.87 205.666 1111.37 213.148C1113.86 220.63 1111.37 219.383 1117.6 226.866C1123.84 234.348 1122.59 233.101 1127.58 240.583C1132.57 248.065 1130.07 250.559 1126.33 256.795C1122.59 263.03 1118.85 266.771 1121.34 274.253L1126.33 289.218C1126.33 289.218 1122.59 297.947 1116.35 301.688C1110.12 305.429 1101.39 310.417 1095.15 311.664C1088.92 312.911 1081.44 315.405 1072.71 317.899C1063.98 320.394 1057.74 326.629 1040.28 347.828C1022.83 369.028 1029.06 355.311 1014.1 365.287C999.132 375.263 1001.63 377.757 997.885 388.981C994.144 400.204 990.403 402.698 990.403 408.933C990.403 415.168 975.439 427.639 959.227 426.392C943.016 425.145 865.708 447.583 855.731 448.839C845.755 450.094 840.767 461.309 832.038 477.52C823.308 493.732 815.826 485.003 784.65 492.485C753.474 499.967 741.004 516.179 734.769 517.426C728.533 518.673 723.554 526.155 672.417 523.661C621.28 521.167 553.956 544.861 545.219 544.861C536.481 544.861 494.09 558.578 472.891 577.284C451.691 595.989 390.586 594.742 369.395 597.236C348.203 599.73 341.96 602.224 328.242 602.224C314.525 602.224 290.831 602.224 278.361 597.236C265.89 592.248 239.703 595.989 227.232 591.009C214.762 586.029 209.774 593.503 193.57 593.503C177.367 593.503 172.371 589.762 154.912 584.774C137.454 579.786 124.983 573.551 113.76 569.81C102.537 566.068 95.0544 566.068 95.0544 554.845C95.0544 543.622 32.7024 493.74 32.7024 493.74C32.7024 493.74 -17.1791 463.811 -28.4025 457.576C-39.6258 451.341 -52.0962 443.859 -69.5547 436.376C-87.0133 428.894 -104.472 426.4 -118.181 421.412C-131.89 416.424 -153.098 417.671 -163.074 413.93C-173.051 410.189 -195.497 395.224 -206.721 385.248C-217.944 375.272 -216.697 374.025 -224.179 365.295C-231.661 356.566 -260.343 341.602 -267.826 335.366C-275.308 329.131 -275.308 314.167 -280.296 306.684C-285.284 299.202 -295.26 285.485 -295.26 276.755C-295.26 268.026 -306.484 261.791 -312.719 253.07C-318.954 244.349 -315.213 241.847 -307.731 230.623C-303.441 224.18 -299.567 215.293 -297.031 208.867L-286.531 204.436C-286.531 204.436 -272.814 188.224 -262.846 183.236C-252.878 178.248 -241.646 178.248 -237.905 172.013C-234.164 165.777 -227.929 163.283 -224.188 162.036C-220.446 160.789 -196.753 157.048 -200.494 152.06C-200.627 151.885 -200.785 151.694 -200.959 151.486L-212.657 152.825C-212.657 152.825 -289.142 162.801 -305.769 209.357C-305.769 209.357 -329.047 216.008 -329.047 239.286C-329.047 262.564 -319.071 292.493 -299.118 309.12C-279.165 325.747 -259.213 345.7 -249.236 365.653C-239.26 385.605 -199.355 408.883 -176.077 415.534C-152.799 422.185 -69.6628 452.114 -56.3611 475.392C-43.0593 498.67 36.7512 538.575 56.7038 541.901C76.6564 545.226 40.0766 588.457 209.674 601.759C379.271 615.061 459.082 605.084 505.638 578.481C552.194 551.877 648.631 538.575 705.164 531.925C761.696 525.274 851.483 495.345 864.785 472.067C878.087 448.789 931.294 435.487 964.548 435.487C997.802 435.487 1027.73 368.978 1060.99 359.002C1094.24 349.026 1144.12 312.446 1137.47 295.819C1130.82 279.191 1147.47 252.571 1134.17 235.944Z" fill="#E99D46"/>
<path d="M-226.657 383.984C-228.32 382.911 -229.666 381.972 -231.454 381.615C-233.399 385.497 -235.885 387.659 -239.992 389.878C-237.427 392.562 -234.646 395.031 -231.678 397.261C-229.272 393.242 -225.825 389.947 -221.702 387.725L-226.657 383.984ZM-221.386 389.346C-222.35 391.416 -224.529 393.262 -225.41 395.166L-224.163 396.413C-223.01 396.42 -221.87 396.172 -220.825 395.686C-219.78 395.2 -218.856 394.489 -218.119 393.603C-218.906 391.976 -220.018 390.527 -221.386 389.346ZM-280.271 327.867L-284.012 320.385C-287.396 320.759 -291.661 323.311 -293.864 326.429C-289.807 324.725 -284.295 324.733 -280.271 327.867ZM-272.789 336.596L-276.53 334.102C-278.301 334.551 -279.623 335.366 -281.443 335.591C-279.104 338.204 -276.076 340.105 -272.706 341.077C-272.806 339.614 -272.681 338.093 -272.789 336.596ZM-287.753 334.102L-282.765 331.608C-286.814 329.771 -289.092 330.128 -287.753 334.102ZM-114.706 445.953C-113.692 442.894 -111.655 440.5 -110.682 437.598L-121.906 436.351C-119.162 439.552 -116.701 442.129 -114.706 445.953ZM351.412 608.01C347.072 608.823 342.608 608.701 338.318 607.653C338.767 609.49 338.717 612.907 339.474 614.669L351.944 615.916C352.352 612.932 350.714 610.887 351.412 608.01ZM349.45 620.905L351.944 623.399C359.293 619.766 352.061 618.003 349.45 620.905ZM148.868 594.883C148.644 599.481 145.052 603.072 141.278 604.386C145.061 605.558 151.578 607.187 153.673 607.187L156.168 594.717C154.297 594.434 151.504 596.03 148.868 594.883ZM133.721 610.928L138.709 612.175C137.653 610.247 137.612 608.9 136.215 607.295C135.567 607.691 135.009 608.219 134.579 608.845C134.15 609.471 133.857 610.181 133.721 610.928ZM100.051 598.458L101.298 602.199C102.815 601.345 104.115 600.153 105.097 598.716C103.452 598.272 101.732 598.185 100.051 598.458ZM61.3925 558.553L63.8866 564.788C66.7709 563.564 69.0889 561.3 70.3795 558.445C66.9128 554.23 64.9258 555.668 61.3925 558.561V558.553ZM162.403 595.964L156.168 600.952C157.789 603.33 159.094 605.15 162.145 605.849C161.472 602.548 162.561 598.558 162.403 595.964ZM357.772 613.048C360.181 610.237 362.004 606.972 363.134 603.446L355.652 604.693C355.654 607.615 356.395 610.489 357.805 613.048H357.772ZM465.383 594.758C471.061 595.182 475.725 598.242 480.19 601.858C479.907 597.07 480.057 591.79 481.595 587.276L465.383 594.758ZM491.388 593.47C492.053 590.327 491.488 587.65 490.324 584.782L486.583 588.523C487.955 590.735 488.869 592.514 491.421 593.437L491.388 593.47ZM486.774 596.097C486.558 598.699 486.109 602.116 486.583 604.726L492.818 600.985C491.214 598.674 489.484 596.878 486.807 596.064L486.774 596.097ZM721.018 531.159L701.065 529.912C705.463 532.016 708.938 535.732 711.981 539.515C715.057 535.557 720.212 530.977 721.051 531.126L721.018 531.159ZM726.131 535.99C728.333 535.754 730.436 534.949 732.233 533.654L730.986 528.665C728.658 530.785 726.887 532.855 726.164 535.956L726.131 535.99ZM718.49 537.453C717.393 539.606 715.373 542.566 714.783 544.877L722.265 541.136C721.184 539.274 720.785 537.902 718.524 537.42L718.49 537.453ZM879.392 455.057L873.157 462.539C877.335 463.905 881.425 465.529 885.402 467.402C884.137 462.967 882.103 458.788 879.392 455.057ZM884.38 475.009L884.322 474.943C884.272 475.018 884.28 475.043 884.38 475.009ZM884.322 474.943C884.671 474.602 886.874 473.164 888.021 471.551C885.522 469.714 882.493 468.74 879.392 468.774L884.322 474.943ZM897.067 467.702C896.775 469.708 896.699 471.74 896.842 473.762L901.83 471.268C900.475 469.406 899.27 467.993 897.091 467.702H897.067ZM965.737 443.775C967.458 441.514 970.367 438.056 971.664 435.104L955.453 433.857C958.171 435.37 962.644 440.25 965.762 443.775H965.737ZM976.312 441.813C974.886 443.546 973.739 445.489 972.911 447.575H976.652C977.534 447.45 978.689 449.42 980.568 446.394C979.288 444.05 978.382 443.576 976.337 441.813H976.312ZM982.888 430.116C983.549 431.628 984.552 432.966 985.817 434.026C987.082 435.086 988.575 435.839 990.179 436.227C990.718 432.375 989.904 428.455 987.876 425.136L982.888 430.116ZM983.079 436.518C982.131 438.754 983.977 438.18 984.135 440.092L987.876 442.586C986.496 439.361 986.778 436.759 983.104 436.518H983.079ZM962.91 446.336C960.15 446.544 960.798 447.999 960.416 450.069H965.404C964.949 448.617 964.093 447.323 962.935 446.336H962.91ZM1137.5 264.268L1138.74 271.75C1141.79 268.836 1145.5 266.701 1149.55 265.524C1145.7 264.172 1141.58 263.742 1137.54 264.268H1137.5ZM1141.24 260.535H1146.22C1145.33 256.828 1143.46 257.376 1141.27 260.535H1141.24ZM1154.95 260.535L1158.7 259.288C1158.1 255.447 1156.51 257.725 1155 260.535H1154.95ZM1127.52 224.371L1132.51 233.101C1134.05 231.321 1135.18 227.772 1136.16 225.801C1133.51 225.186 1130.36 224.188 1127.56 224.371H1127.52ZM1121.28 204.419L1122.53 210.654C1124.77 209.332 1126.35 209.822 1127.08 206.913C1125.37 203.479 1123.81 204.626 1121.32 204.419H1121.28ZM1122.67 194.509L1122.53 194.442C1122.42 194.542 1122.5 194.55 1122.71 194.509H1122.67ZM1126.36 193.287C1125.17 193.785 1123.93 194.193 1122.67 194.509L1127.52 196.936C1127.34 195.224 1127.97 194.584 1126.41 193.287H1126.36ZM1126.27 215.642H1128.77C1128.47 213.938 1127.54 214.179 1126.31 215.642H1126.27ZM1025.01 158.411C1023.77 159.6 1020.1 160.664 1019.19 160.806L1025.26 162.019C1025.08 160.714 1025.44 159.717 1025.05 158.411H1025.01ZM1019.19 160.806H1019.03C1018.99 160.83 1019.06 160.839 1019.24 160.806H1019.19ZM1038.98 157.098C1039.1 158.4 1039.93 158.794 1041.47 158.278L1045.21 155.784C1042.48 155.019 1041.29 153.556 1039.01 157.098H1038.98ZM1055.19 159.525C1054.43 158.974 1053.59 158.553 1052.7 158.278L1055.19 159.525ZM996.514 155.51C995.328 155.97 994.934 156.893 995.333 158.278H999.074C998.476 156.715 998.692 155.792 996.563 155.51H996.514ZM57.6597 128.349H68.8748C65.4911 124.001 61.3344 124.217 57.6597 128.349ZM77.4461 120.659C76.9864 121.224 76.7487 121.936 76.7778 122.664C76.8069 123.391 77.1007 124.082 77.604 124.608L80.0981 120.867C79.0839 120.086 79.724 118.423 77.4461 120.659ZM68.9163 116.96C66.4222 117.325 66.8047 118.622 66.4222 120.867L71.4104 119.62C70.5541 118.439 70.5291 117.483 68.9163 116.96ZM200.953 120.9C201.078 120.9 201.119 120.9 201.061 120.9H200.953ZM192.639 123.278L200.953 120.9C200.171 120.709 196.023 118.972 195.042 118.531C194.385 120.18 193.575 121.763 192.623 123.261L192.639 123.278ZM192.639 123.278L192.348 123.361C192.232 123.76 192.365 123.652 192.623 123.261L192.639 123.278ZM202.424 114.449C203.62 114.706 204.85 114.767 206.066 114.632L204.819 110.891C203.497 112.046 202.566 112.778 202.408 114.449H202.424ZM186.213 110.833C185.149 113.219 186.495 112.337 187.36 113.385L191.101 109.644C189.039 109.644 187.851 109.428 186.196 110.833H186.213ZM229.718 112.213C228.544 113.653 227.694 115.329 227.224 117.126L234.706 115.879C233.282 114.354 231.584 113.111 229.701 112.213H229.718ZM-328.906 225.618C-328.698 225.859 -328.714 225.801 -328.856 225.618H-328.906ZM-331.308 222.093C-331.117 222.326 -329.305 224.862 -328.814 225.577L-325.123 223.083C-327.467 222.384 -328.856 221.611 -331.308 222.093ZM-345.117 226.865C-344.934 227.314 -345.267 228.869 -342.523 229.542C-340.578 228.944 -341.916 228.37 -341.376 226.865H-345.117ZM-307.64 380.068C-308.126 380.046 -308.611 380.148 -309.047 380.365C-309.483 380.581 -309.857 380.906 -310.134 381.307C-310.24 382.006 -310.192 382.719 -309.993 383.398C-309.793 384.076 -309.446 384.702 -308.978 385.231L-306.484 382.737C-307.332 381.249 -305.403 380.692 -307.64 380.068ZM-326.412 381.49L-323.918 380.243C-325.954 379.037 -328.058 378.04 -326.412 381.49ZM-244.107 413.913L-239.119 411.419C-240.753 410.709 -242.509 410.32 -244.29 410.271C-245.254 411.419 -245.188 412.633 -244.115 413.913H-244.107Z" fill="#F0AD4B"/>
<defs>
<radialGradient id="paint0_radial_1_12764" cx="0" cy="0" r="1" gradientUnits="userSpaceOnUse" gradientTransform="translate(388.648 44.1356) scale(480.404 60.1627)">
<stop stop-color="#FBCE50"/>
<stop offset="1" stop-color="#D29639"/>
</radialGradient>
<radialGradient id="paint1_radial_1_12764" cx="0" cy="0" r="1" gradientUnits="userSpaceOnUse" gradientTransform="translate(-406.873 818.683) rotate(26.6581) scale(652.24 462.404)">
<stop stop-color="#8B6009"/>
<stop offset="1" stop-color="#D29639"/>
</radialGradient>
<radialGradient id="paint2_radial_1_12764" cx="0" cy="0" r="1" gradientUnits="userSpaceOnUse" gradientTransform="translate(1206.85 831.899) rotate(-24.1224) scale(646.469 466.789)">
<stop stop-color="#8B6009"/>
<stop offset="1" stop-color="#D29639"/>
</radialGradient>
<radialGradient id="paint3_radial_1_12764" cx="0" cy="0" r="1" gradientUnits="userSpaceOnUse" gradientTransform="translate(-10.6206 559.997) rotate(2.75) scale(66.2552 26.6741)">
<stop offset="0.01" stop-color="#7D4500"/>
<stop offset="0.31" stop-color="#804802"/>
<stop offset="0.53" stop-color="#895007"/>
<stop offset="0.71" stop-color="#985E10"/>
<stop offset="0.88" stop-color="#AE721C"/>
<stop offset="1" stop-color="#C28528"/>
</radialGradient>
<radialGradient id="paint4_radial_1_12764" cx="0" cy="0" r="1" gradientUnits="userSpaceOnUse" gradientTransform="translate(203.949 628.139) rotate(2.75) scale(36.9996 14.9146)">
<stop offset="0.01" stop-color="#7D4500"/>
<stop offset="0.29" stop-color="#804802"/>
<stop offset="0.49" stop-color="#895008"/>
<stop offset="0.66" stop-color="#985F12"/>
<stop offset="0.82" stop-color="#AE7421"/>
<stop offset="0.96" stop-color="#CA8E34"/>
<stop offset="1" stop-color="#D29639"/>
</radialGradient>
<radialGradient id="paint5_radial_1_12764" cx="0" cy="0" r="1" gradientUnits="userSpaceOnUse" gradientTransform="translate(570.642 608.058) rotate(-1.94) scale(66.2552 14.9146)">
<stop offset="0.01" stop-color="#7D4500"/>
<stop offset="0.29" stop-color="#804802"/>
<stop offset="0.49" stop-color="#895008"/>
<stop offset="0.66" stop-color="#985F12"/>
<stop offset="0.82" stop-color="#AE7421"/>
<stop offset="0.96" stop-color="#CA8E34"/>
<stop offset="1" stop-color="#D29639"/>
</radialGradient>
<radialGradient id="paint6_radial_1_12764" cx="0" cy="0" r="1" gradientUnits="userSpaceOnUse" gradientTransform="translate(758.91 553.801) rotate(-1.69) scale(46.4647 14.9146)">
<stop offset="0.01" stop-color="#7D4500"/>
<stop offset="0.29" stop-color="#804802"/>
<stop offset="0.49" stop-color="#895008"/>
<stop offset="0.66" stop-color="#985F12"/>
<stop offset="0.82" stop-color="#AE7421"/>
<stop offset="0.96" stop-color="#CA8E34"/>
<stop offset="1" stop-color="#D29639"/>
</radialGradient>
<radialGradient id="paint7_radial_1_12764" cx="0" cy="0" r="1" gradientUnits="userSpaceOnUse" gradientTransform="translate(799.14 396.596) scale(46.2901 46.2901)">
<stop stop-color="#F39342"/>
<stop offset="1" stop-color="#FEA251"/>
</radialGradient>
<radialGradient id="paint8_radial_1_12764" cx="0" cy="0" r="1" gradientUnits="userSpaceOnUse" gradientTransform="translate(771.406 448.29) scale(22.7792 22.7791)">
<stop stop-color="#F39342"/>
<stop offset="1" stop-color="#FEA251"/>
</radialGradient>
<radialGradient id="paint9_radial_1_12764" cx="0" cy="0" r="1" gradientUnits="userSpaceOnUse" gradientTransform="translate(715.157 378.564) scale(35.5157 35.5157)">
<stop stop-color="#F39342"/>
<stop offset="1" stop-color="#FEA251"/>
</radialGradient>
<radialGradient id="paint10_radial_1_12764" cx="0" cy="0" r="1" gradientUnits="userSpaceOnUse" gradientTransform="translate(497.466 226.441) scale(40.3708 40.3708)">
<stop stop-color="#F39342"/>
<stop offset="1" stop-color="#FEA251"/>
</radialGradient>
<radialGradient id="paint11_radial_1_12764" cx="0" cy="0" r="1" gradientUnits="userSpaceOnUse" gradientTransform="translate(473.963 208.309) scale(35.0335 35.0335)">
<stop stop-color="#F39342"/>
<stop offset="1" stop-color="#FEA251"/>
</radialGradient>
<radialGradient id="paint12_radial_1_12764" cx="0" cy="0" r="1" gradientUnits="userSpaceOnUse" gradientTransform="translate(173.534 222.684) scale(31.309 31.309)">
<stop stop-color="#F39342"/>
<stop offset="1" stop-color="#FEA251"/>
</radialGradient>
<radialGradient id="paint13_radial_1_12764" cx="0" cy="0" r="1" gradientUnits="userSpaceOnUse" gradientTransform="translate(221.379 210.246) scale(36.1309 36.1309)">
<stop stop-color="#F39342"/>
<stop offset="1" stop-color="#FEA251"/>
</radialGradient>
<radialGradient id="paint14_radial_1_12764" cx="0" cy="0" r="1" gradientUnits="userSpaceOnUse" gradientTransform="translate(221.379 210.246) scale(36.1309 36.1309)">
<stop stop-color="#F39342"/>
<stop offset="1" stop-color="#FEA251"/>
</radialGradient>
<radialGradient id="paint15_radial_1_12764" cx="0" cy="0" r="1" gradientUnits="userSpaceOnUse" gradientTransform="translate(143.681 249.287) scale(15.4965 15.4965)">
<stop stop-color="#F39342"/>
<stop offset="1" stop-color="#FEA251"/>
</radialGradient>
<radialGradient id="paint16_radial_1_12764" cx="0" cy="0" r="1" gradientUnits="userSpaceOnUse" gradientTransform="translate(99.2442 342.216) scale(43.397 43.3969)">
<stop stop-color="#F39342"/>
<stop offset="1" stop-color="#FEA251"/>
</radialGradient>
<radialGradient id="paint17_radial_1_12764" cx="0" cy="0" r="1" gradientUnits="userSpaceOnUse" gradientTransform="translate(124.6 387.925) scale(37.9848 37.9848)">
<stop stop-color="#F39342"/>
<stop offset="1" stop-color="#FEA251"/>
</radialGradient>
<radialGradient id="paint18_radial_1_12764" cx="0" cy="0" r="1" gradientUnits="userSpaceOnUse" gradientTransform="translate(105.081 432.909) scale(59.1928 59.1926)">
<stop stop-color="#F39342"/>
<stop offset="1" stop-color="#FEA251"/>
</radialGradient>
<radialGradient id="paint19_radial_1_12764" cx="0" cy="0" r="1" gradientUnits="userSpaceOnUse" gradientTransform="translate(4.33649 386.038) scale(59.6583 59.6583)">
<stop stop-color="#FFCA66"/>
<stop offset="1" stop-color="#FFAE55"/>
</radialGradient>
<radialGradient id="paint20_radial_1_12764" cx="0" cy="0" r="1" gradientUnits="userSpaceOnUse" gradientTransform="translate(53.6362 388.116) scale(18.9051 18.9051)">
<stop stop-color="#FFCA66"/>
<stop offset="1" stop-color="#FFAE55"/>
</radialGradient>
<radialGradient id="paint21_radial_1_12764" cx="0" cy="0" r="1" gradientUnits="userSpaceOnUse" gradientTransform="translate(67.3777 388.955) scale(3.83257)">
<stop stop-color="#FFCA66"/>
<stop offset="1" stop-color="#FFAE55"/>
</radialGradient>
<radialGradient id="paint22_radial_1_12764" cx="0" cy="0" r="1" gradientUnits="userSpaceOnUse" gradientTransform="translate(6.48891 353.589) scale(24.2092 24.2092)">
<stop stop-color="#FFCA66"/>
<stop offset="1" stop-color="#FFAE55"/>
</radialGradient>
<radialGradient id="paint23_radial_1_12764" cx="0" cy="0" r="1" gradientUnits="userSpaceOnUse" gradientTransform="translate(42.1549 420.04) scale(23.2448 23.2448)">
<stop stop-color="#FFCA66"/>
<stop offset="1" stop-color="#FFAE55"/>
</radialGradient>
<radialGradient id="paint24_radial_1_12764" cx="0" cy="0" r="1" gradientUnits="userSpaceOnUse" gradientTransform="translate(677.762 405.159) scale(92.7713 92.7713)">
<stop stop-color="#FFCA66"/>
<stop offset="1" stop-color="#FFAE55"/>
</radialGradient>
<radialGradient id="paint25_radial_1_12764" cx="0" cy="0" r="1" gradientUnits="userSpaceOnUse" gradientTransform="translate(677.763 405.158) scale(92.7716 92.7708)">
<stop stop-color="#FFCA66"/>
<stop offset="1" stop-color="#FFAE55"/>
</radialGradient>
<radialGradient id="paint26_radial_1_12764" cx="0" cy="0" r="1" gradientUnits="userSpaceOnUse" gradientTransform="translate(669.415 423.657) scale(42.0169 42.0168)">
<stop stop-color="#FFCA66"/>
<stop offset="1" stop-color="#FFAE55"/>
</radialGradient>
<radialGradient id="paint27_radial_1_12764" cx="0" cy="0" r="1" gradientUnits="userSpaceOnUse" gradientTransform="translate(763.983 389.105) scale(57.0645 57.0644)">
<stop stop-color="#FFCA66"/>
<stop offset="1" stop-color="#FFAE55"/>
</radialGradient>
<radialGradient id="paint28_radial_1_12764" cx="0" cy="0" r="1" gradientUnits="userSpaceOnUse" gradientTransform="translate(522.365 275.866) scale(39.4811 39.4819)">
<stop stop-color="#FFCA66"/>
<stop offset="1" stop-color="#FFAE55"/>
</radialGradient>
<radialGradient id="paint29_radial_1_12764" cx="0" cy="0" r="1" gradientUnits="userSpaceOnUse" gradientTransform="translate(522.365 275.866) scale(39.4812 39.4812)">
<stop stop-color="#FFCA66"/>
<stop offset="1" stop-color="#FFAE55"/>
</radialGradient>
<radialGradient id="paint30_radial_1_12764" cx="0" cy="0" r="1" gradientUnits="userSpaceOnUse" gradientTransform="translate(519.954 248.306) scale(19.2127 19.2127)">
<stop stop-color="#FFCA66"/>
<stop offset="1" stop-color="#FFAE55"/>
</radialGradient>
<radialGradient id="paint31_radial_1_12764" cx="0" cy="0" r="1" gradientUnits="userSpaceOnUse" gradientTransform="translate(117.177 226.682) scale(60.2985 60.2984)">
<stop stop-color="#FFCA66"/>
<stop offset="1" stop-color="#FFAE55"/>
</radialGradient>
<radialGradient id="paint32_radial_1_12764" cx="0" cy="0" r="1" gradientUnits="userSpaceOnUse" gradientTransform="translate(132.091 205.375) scale(28.7401 28.7401)">
<stop stop-color="#FFCA66"/>
<stop offset="1" stop-color="#FFAE55"/>
</radialGradient>
<radialGradient id="paint33_radial_1_12764" cx="0" cy="0" r="1" gradientUnits="userSpaceOnUse" gradientTransform="translate(171.697 195.199) scale(11.9549 11.9549)">
<stop stop-color="#FFCA66"/>
<stop offset="1" stop-color="#FFAE55"/>
</radialGradient>
<radialGradient id="paint34_radial_1_12764" cx="0" cy="0" r="1" gradientUnits="userSpaceOnUse" gradientTransform="translate(129.289 162.767) scale(54.7699 54.77)">
<stop stop-color="#FFCA66"/>
<stop offset="1" stop-color="#FFAE55"/>
</radialGradient>
<radialGradient id="paint35_radial_1_12764" cx="0" cy="0" r="1" gradientUnits="userSpaceOnUse" gradientTransform="translate(19.251 167.689) scale(19.1213 19.1213)">
<stop stop-color="#FFCA66"/>
<stop offset="1" stop-color="#FFAE55"/>
</radialGradient>
<radialGradient id="paint36_radial_1_12764" cx="0" cy="0" r="1" gradientUnits="userSpaceOnUse" gradientTransform="translate(194.734 165.652) scale(6.45966)">
<stop stop-color="#FFCA66"/>
<stop offset="1" stop-color="#FFAE55"/>
</radialGradient>
<radialGradient id="paint37_radial_1_12764" cx="0" cy="0" r="1" gradientUnits="userSpaceOnUse" gradientTransform="translate(50.9084 172.819) scale(7.3409 7.34089)">
<stop stop-color="#FFCA66"/>
<stop offset="1" stop-color="#FFAE55"/>
</radialGradient>
<radialGradient id="paint38_radial_1_12764" cx="0" cy="0" r="1" gradientUnits="userSpaceOnUse" gradientTransform="translate(657.635 367.814) scale(6.6675 6.6675)">
<stop stop-color="#FFCA66"/>
<stop offset="1" stop-color="#FFAE55"/>
</radialGradient>
<radialGradient id="paint39_radial_1_12764" cx="0" cy="0" r="1" gradientUnits="userSpaceOnUse" gradientTransform="translate(472.857 251.216) scale(4.60577 4.60573)">
<stop stop-color="#FFCA66"/>
<stop offset="1" stop-color="#FFAE55"/>
</radialGradient>
<radialGradient id="paint40_radial_1_12764" cx="0" cy="0" r="1" gradientUnits="userSpaceOnUse" gradientTransform="translate(472.857 251.216) scale(4.60567 4.60573)">
<stop stop-color="#FFCA66"/>
<stop offset="1" stop-color="#FFAE55"/>
</radialGradient>
<radialGradient id="paint41_radial_1_12764" cx="0" cy="0" r="1" gradientUnits="userSpaceOnUse" gradientTransform="translate(564.415 155.11) scale(23.328 23.3279)">
<stop stop-color="#FFCA66"/>
<stop offset="1" stop-color="#FFAE55"/>
</radialGradient>
<radialGradient id="paint42_radial_1_12764" cx="0" cy="0" r="1" gradientUnits="userSpaceOnUse" gradientTransform="translate(524.784 160.539) scale(5.52022)">
<stop stop-color="#FFCA66"/>
<stop offset="1" stop-color="#FFAE55"/>
</radialGradient>
<radialGradient id="paint43_radial_1_12764" cx="0" cy="0" r="1" gradientUnits="userSpaceOnUse" gradientTransform="translate(129.315 417.895) scale(42.7235 42.7236)">
<stop stop-color="#FFCA66"/>
<stop offset="1" stop-color="#FFAE55"/>
</radialGradient>
<radialGradient id="paint44_radial_1_12764" cx="0" cy="0" r="1" gradientUnits="userSpaceOnUse" gradientTransform="translate(148.062 393.287) scale(26.2959 26.2959)">
<stop stop-color="#FFCA66"/>
<stop offset="1" stop-color="#FFAE55"/>
</radialGradient>
<radialGradient id="paint45_radial_1_12764" cx="0" cy="0" r="1" gradientUnits="userSpaceOnUse" gradientTransform="translate(148.062 393.287) scale(26.2959 26.2959)">
<stop stop-color="#FFCA66"/>
<stop offset="1" stop-color="#FFAE55"/>
</radialGradient>
<radialGradient id="paint46_radial_1_12764" cx="0" cy="0" r="1" gradientUnits="userSpaceOnUse" gradientTransform="translate(117.326 317.458) scale(34.3185 34.3186)">
<stop stop-color="#FFCA66"/>
<stop offset="1" stop-color="#FFAE55"/>
</radialGradient>
<radialGradient id="paint47_radial_1_12764" cx="0" cy="0" r="1" gradientUnits="userSpaceOnUse" gradientTransform="translate(852.92 353.822) scale(101.251 101.251)">
<stop stop-color="#FFCA66"/>
<stop offset="1" stop-color="#FFAE55"/>
</radialGradient>
<radialGradient id="paint48_radial_1_12764" cx="0" cy="0" r="1" gradientUnits="userSpaceOnUse" gradientTransform="translate(852.921 353.822) scale(101.251 101.251)">
<stop stop-color="#FFCA66"/>
<stop offset="1" stop-color="#FFAE55"/>
</radialGradient>
<radialGradient id="paint49_radial_1_12764" cx="0" cy="0" r="1" gradientUnits="userSpaceOnUse" gradientTransform="translate(755.66 369.51) scale(26.6284 26.6283)">
<stop stop-color="#FFCA66"/>
<stop offset="1" stop-color="#FFAE55"/>
</radialGradient>
<radialGradient id="paint50_radial_1_12764" cx="0" cy="0" r="1" gradientUnits="userSpaceOnUse" gradientTransform="translate(748.826 193.603) scale(50.5466 50.5467)">
<stop stop-color="#FFCA66"/>
<stop offset="1" stop-color="#FFAE55"/>
</radialGradient>
<radialGradient id="paint51_radial_1_12764" cx="0" cy="0" r="1" gradientUnits="userSpaceOnUse" gradientTransform="translate(778.606 177.749) scale(28.2579 28.2579)">
<stop stop-color="#FFCA66"/>
<stop offset="1" stop-color="#FFAE55"/>
</radialGradient>
</defs>
</svg>
