<svg width="750" height="254" viewBox="0 0 750 254" fill="none" xmlns="http://www.w3.org/2000/svg">
<path d="M546.849 253.398C546.558 253.398 546.272 253.323 546.017 253.182L390.37 166.937L234.732 253.182C234.529 253.294 234.307 253.365 234.077 253.389C233.847 253.413 233.614 253.391 233.393 253.323L-344.16 73.7498C-344.513 73.6254 -344.814 73.3857 -345.014 73.0693C-345.213 72.753 -345.301 72.3785 -345.261 72.0064C-345.222 71.6344 -345.058 71.2865 -344.796 71.019C-344.535 70.7515 -344.191 70.5801 -343.82 70.5324C-341.758 70.3329 -136.454 50.3054 -18.3342 25.639C48.0332 11.8052 139.175 3.93224 260.279 1.5878C269.574 1.40491 279.276 1.25522 289.111 1.13052C319.563 0.756405 348.919 0.689906 371.116 0.673279H409.674C504.325 0.731474 680.298 0.864491 799.124 25.6141C917.244 50.2639 1122.52 70.2913 1124.61 70.5074C1124.99 70.5415 1125.35 70.7066 1125.62 70.9748C1125.9 71.243 1126.07 71.5978 1126.11 71.979C1126.15 72.3594 1126.05 72.7407 1125.84 73.0587C1125.63 73.3766 1125.32 73.6119 1124.95 73.7248L547.397 253.298C547.221 253.36 547.036 253.394 546.849 253.398Z" fill="url(#paint0_linear_1_12759)"/>
<path d="M1109.99 72.162L543.773 251.736L390.371 165.05L236.968 251.752L-329.246 72.1787C-329.246 72.1787 -127.225 52.2261 -10.0037 27.2853C68.2438 10.6581 169.811 5.10462 262.832 3.26732C272.354 3.07334 281.776 2.92093 291.098 2.81008C319.414 2.4526 346.583 2.36947 371.648 2.35284H409.06C522.848 2.42767 680.083 3.75784 790.695 27.2936C907.942 52.2095 1109.99 72.162 1109.99 72.162Z" fill="url(#paint1_linear_1_12759)"/>
<path d="M79.4585 41.0028C79.4585 51.5361 133.771 59.8497 132.109 70.3747C130.446 80.8998 35.6709 102.523 14.6125 106.406C-6.44578 110.288 27.9143 137.44 27.9143 137.44L73.3564 142.986L127.677 112.5C127.677 112.5 180.884 91.4414 181.99 69.269C183.096 47.0967 121.575 47.6537 121.575 41.0028C121.575 34.5348 278.661 4.50618 287.456 2.83514C279.342 2.94045 271.145 3.07623 262.865 3.2425L258.284 3.33394C253.387 3.87432 146.117 15.8043 105.505 26.612C105.505 26.5954 79.4585 30.4695 79.4585 41.0028Z" fill="url(#paint2_linear_1_12759)"/>
<path d="M179.854 69.9092C178.606 91.1006 105.031 111.053 105.031 111.053L26.4678 109.806C26.4678 109.806 141.195 84.8654 141.195 68.6622C141.195 52.459 82.5845 57.4388 82.5845 38.7332C82.5845 28.7071 176.087 14.3827 262.856 3.24252C272.378 3.04853 281.8 2.89613 291.123 2.78528C237.749 11.5062 116.271 32.1988 116.271 39.9803C116.263 49.9566 181.101 48.7096 179.854 69.9092Z" fill="url(#paint3_linear_1_12759)"/>
<defs>
<linearGradient id="paint0_linear_1_12759" x1="390.37" y1="104.585" x2="390.37" y2="2.28611" gradientUnits="userSpaceOnUse">
<stop stop-color="#FFAB4A"/>
<stop offset="1" stop-color="#FFE3A9"/>
</linearGradient>
<linearGradient id="paint1_linear_1_12759" x1="390.371" y1="104.585" x2="390.371" y2="2.28633" gradientUnits="userSpaceOnUse">
<stop stop-color="#E59B3A"/>
<stop offset="1" stop-color="#F5C465"/>
</linearGradient>
<linearGradient id="paint2_linear_1_12759" x1="147.622" y1="104.585" x2="147.622" y2="2.28644" gradientUnits="userSpaceOnUse">
<stop stop-color="#DC912F"/>
<stop offset="1" stop-color="#ECBA58"/>
</linearGradient>
<linearGradient id="paint3_linear_1_12759" x1="158.795" y1="104.585" x2="158.795" y2="2.28646" gradientUnits="userSpaceOnUse">
<stop stop-color="#F7B155"/>
<stop offset="1" stop-color="#FFD480"/>
</linearGradient>
</defs>
</svg>
