<svg width="1439" height="145" viewBox="0 0 1439 145" fill="none" xmlns="http://www.w3.org/2000/svg">
<rect x="5.54728" y="3.75944" width="1430.41" height="135.481" fill="url(#paint0_linear_1_3058)" stroke="#91181D" stroke-width="9.86491"/>
<rect x="10.4797" y="8.69189" width="1420.55" height="125.616" fill="url(#paint1_linear_1_3058)"/>
<g style="mix-blend-mode:darken" opacity="0.25">
<path d="M9 137V6C27.9406 92.137 125.077 108.587 171.278 106.045C504.712 106.493 1194.37 107.121 1285.52 106.045C1376.67 104.968 1421.82 39.4977 1433 6.89726V137H9Z" fill="#91181D"/>
</g>
<path d="M45.9934 53.1063C40.8637 57.772 21.8244 57.443 12.946 56.6953C11.5839 56.6953 10.4797 55.5912 10.4797 54.2291V13.6919C10.4797 10.9305 12.7183 8.69189 15.4797 8.69189H186.935C192.943 8.69189 193.845 17.3455 187.967 18.5844L154.014 25.7398C134.942 27.3848 96.4031 30.6748 94.8247 30.6748C92.8517 30.6748 52.4056 47.2741 45.9934 53.1063Z" fill="url(#paint2_linear_1_3058)"/>
<path d="M86.9328 79.1268C86.9328 90.5851 37.8369 101.21 13.1181 105.12C13.0003 105.139 12.8861 105.147 12.7668 105.147C11.5037 105.147 10.4797 106.171 10.4797 107.434V128.86C10.4797 131.621 12.7087 133.86 15.4701 133.86H159.933C165.3 133.86 182.584 126.238 191.253 122.102C191.746 121.867 192.27 121.713 192.812 121.646L272.393 111.877L421.353 79.1268L486.334 66.605C492.285 65.4582 491.448 56.6953 485.388 56.6953H421.713C421.474 56.6953 421.234 56.7126 420.997 56.7469L192.942 89.7568C192.316 89.8474 191.697 89.8228 191.082 89.6765C155.773 81.2824 86.9328 67.7408 86.9328 79.1268Z" fill="url(#paint3_linear_1_3058)"/>
<path d="M408.036 105.147C400.144 105.147 380.761 115.649 365.36 124.984C361.121 127.554 362.978 133.86 367.934 133.86H566.264C566.66 133.86 567.055 133.813 567.441 133.719L657.618 111.877L807.85 71.0614C808.943 70.7645 809.902 70.1055 810.572 69.1922L831.736 40.3166C834.946 35.9373 829.856 30.3004 825.173 33.0484L785.813 56.1452C785.195 56.5077 784.507 56.7333 783.794 56.8066L670.759 68.4384C665.513 68.9783 663.113 62.0795 667.562 59.247L672.549 56.0719C677.179 53.1238 674.365 45.9489 668.965 46.9357L586.917 61.9291C586.374 62.0283 585.866 62.2085 585.385 62.4783C563.272 74.8752 519.364 99.3345 515.07 101.11C509.644 103.353 421.353 105.147 408.036 105.147Z" fill="url(#paint4_linear_1_3058)"/>
<path d="M389.876 9.05155L306.92 42.3392C306.429 42.5308 306.618 43.2667 307.141 43.1973L437.833 25.844C438.352 25.775 438.879 25.7881 439.395 25.8829L528.276 42.228C528.678 42.3018 529.087 42.3262 529.494 42.3005L579.427 39.1585C582.492 38.9657 582.613 34.4999 579.564 34.1412C576.498 33.7807 576.644 29.2838 579.726 29.1224L642.98 25.809C643.845 25.7637 644.684 25.4942 645.414 25.0271L656.544 17.9032C660.752 15.2102 658.844 8.69189 653.849 8.69189H391.738C391.1 8.69189 390.468 8.81397 389.876 9.05155Z" fill="url(#paint5_linear_1_3058)"/>
<path d="M814.824 90.0923L763.569 106.16C757.789 107.972 759.606 116.579 765.626 115.899L845.857 106.839C848.56 106.534 849.59 110.261 847.114 111.387C844.478 112.586 845.847 116.563 848.662 115.885L954.596 90.3587C955.835 90.0602 956.913 89.2999 957.61 88.2331L984.202 47.5424C987.216 42.9312 981.648 37.5489 977.142 40.7165L923.447 78.4551C922.818 78.897 922.096 79.188 921.336 79.3055L862.985 88.3394C858.884 88.9742 855.839 84.6259 857.838 80.9896L863.746 70.2425C866.24 65.7063 861.042 60.8351 856.677 63.6177L816.016 89.5375C815.645 89.7741 815.244 89.9607 814.824 90.0923Z" fill="url(#paint6_linear_1_3058)"/>
<path d="M1017.92 81.1642L1062.09 11.0274C1063 9.57377 1064.6 8.69189 1066.32 8.69189H1280.62C1286.64 8.69189 1287.52 17.3803 1281.62 18.5901L1227.84 29.6129C1222.1 30.7901 1222.72 39.1865 1228.58 39.5037L1287.65 42.7049C1292.72 42.9795 1294.2 49.7581 1289.71 52.1222L1219.04 89.3186C1218.32 89.6965 1217.52 89.894 1216.71 89.894H1081.96C1076.09 89.894 1075.02 81.5308 1080.7 80.0547L1123.31 68.9823C1129.14 67.4684 1127.82 58.847 1121.8 59.1493L1064.94 62.0093C1064.04 62.0548 1063.16 62.3455 1062.41 62.8503L1024.93 87.9814C1020.45 90.9895 1015.04 85.7343 1017.92 81.1642Z" fill="url(#paint7_linear_1_3058)"/>
<path d="M1377.26 56.6953C1394.27 54.3162 1407.33 44.2521 1416.49 33.3248C1420.09 29.0262 1431.03 31.8278 1431.03 37.4349V128.86C1431.03 131.621 1428.79 133.86 1426.03 133.86H1138.53L1374.86 105.436C1376.38 105.254 1377.73 104.389 1378.53 103.089L1381.26 98.6451C1383.44 95.0927 1380.57 90.5866 1376.43 91.06L1344.18 94.7453C1338.12 95.4376 1336.15 86.1331 1341.93 84.2052C1368.85 75.2358 1393.77 66.0613 1396.99 62.0789C1402.52 55.2597 1386.14 55.6485 1377.26 56.6953Z" fill="url(#paint8_linear_1_3058)"/>
<path d="M37.8521 48.1712H16.4663C13.7049 48.1712 11.4663 45.9327 11.4663 43.1713V13.6918C11.4663 10.9304 13.7049 8.69179 16.4663 8.69179H158.08C163.797 8.69179 165.038 16.7378 159.585 18.4597L155.61 19.7153C155.205 19.8429 154.787 19.9187 154.363 19.9407L87.044 23.4395C86.3209 23.4771 85.6146 23.6713 84.9739 24.0087L40.1817 47.5954C39.4634 47.9736 38.6638 48.1712 37.8521 48.1712Z" fill="url(#paint9_linear_1_3058)"/>
<path d="M95.562 93.9438L15.1783 115.373C12.9894 115.957 11.4663 117.939 11.4663 120.205V128.411C11.4663 131.172 13.7049 133.411 16.4663 133.411H160.426L91.2589 126.535C86.0076 126.013 85.0416 118.767 89.9728 116.888L110.762 108.964C114.912 107.382 115.094 101.579 111.051 99.7406L98.9199 94.2237C97.8667 93.7447 96.68 93.6458 95.562 93.9438Z" fill="url(#paint10_linear_1_3058)"/>
<path d="M144.204 114.303L168.672 100.832C169.411 100.426 170.24 100.212 171.083 100.212H197.989C198.267 100.212 198.544 100.189 198.818 100.143L427.354 61.6994C427.628 61.6533 427.905 61.6302 428.183 61.6302H438.938C444.953 61.6302 445.846 70.2982 439.958 71.525L263.515 108.288L182.243 116.255C181.518 116.326 180.818 116.555 180.19 116.925L164.552 126.151C163.484 126.781 162.22 126.992 161.005 126.743L145.609 123.58C141.055 122.645 140.131 116.545 144.204 114.303Z" fill="url(#paint11_linear_1_3058)"/>
<path d="M376.707 19.5427L402.696 9.05508C403.291 8.81513 403.926 8.69179 404.567 8.69179H433.212C438.044 8.69179 440.065 14.8655 436.169 17.7235L434.142 19.2098C433.517 19.6687 432.793 19.9757 432.028 20.1065L379.421 29.1078C373.518 30.1178 371.153 21.7838 376.707 19.5427Z" fill="url(#paint12_linear_1_3058)"/>
<path d="M136.751 47.274L257.856 16.6271C258.657 16.4245 259.495 16.4234 260.296 16.6238L301.301 26.88C306.178 28.1 306.407 34.9466 301.622 36.4894L187.607 73.2493C186.611 73.5704 185.539 73.5709 184.543 73.2507L134.44 57.1491C129.303 55.498 130.063 48.0039 135.428 47.4184L136.751 47.274Z" fill="url(#paint13_linear_1_3058)"/>
<path d="M529.34 38.2083L487.024 30.7439C481.244 29.7244 481.645 21.3021 487.495 20.8358L627.117 9.70757C631.653 9.34598 634.275 14.7407 631.187 18.0841L630.787 18.5168C629.96 19.4129 628.833 19.9756 627.62 20.0989L549.694 28.016C547.014 28.2883 546.695 32.0684 549.292 32.7856C551.973 33.5257 551.518 37.4574 548.739 37.5658L530.403 38.2805C530.047 38.2944 529.69 38.2702 529.34 38.2083Z" fill="url(#paint14_linear_1_3058)"/>
<path d="M561.435 8.69179L468.497 17.9202C463.611 18.4053 461.435 11.9473 465.618 9.3765C466.346 8.9288 467.185 8.69179 468.04 8.69179H561.435Z" fill="url(#paint15_linear_1_3058)"/>
<path d="M402.717 116.758L386.918 123.849C382.001 126.057 383.575 133.411 388.966 133.411H541.884C542.419 133.411 542.951 133.325 543.458 133.157L663.044 93.4829L721.35 77.8592C727.297 76.2659 725.667 67.4251 719.544 68.056L644.623 75.7745C639.991 76.2517 637.508 70.4712 641.044 67.4404C644.779 64.2394 641.785 58.1685 636.972 59.1837L587.856 69.5426C587.344 69.6505 586.853 69.838 586.399 70.0983L514.652 111.268C513.954 111.668 513.171 111.894 512.367 111.927L404.56 116.324C403.924 116.35 403.298 116.497 402.717 116.758Z" fill="url(#paint16_linear_1_3058)"/>
<path d="M812.826 95.0312L804.705 97.5286C798.822 99.3379 800.771 108.111 806.867 107.26L908.024 93.1259C908.458 93.0654 908.876 92.9245 909.258 92.7107C912.739 90.7621 910.815 85.4394 906.893 86.167L854.492 95.8875C853.484 96.0744 852.443 95.9471 851.51 95.5228L850.491 95.0593C848.016 93.9338 846.894 91.0371 847.965 88.5382L850.945 81.5851C852.888 77.052 847.789 72.7415 843.643 75.4114L814.062 94.4561C813.678 94.7034 813.262 94.8969 812.826 95.0312Z" fill="url(#paint17_linear_1_3058)"/>
<path d="M952.257 84.7317L957.882 77.0926C961.455 72.2413 954.981 66.38 950.507 70.4151L941.261 78.7551C937.5 82.1475 940.587 88.3391 945.56 87.3768L949.181 86.676C950.414 86.4373 951.513 85.7432 952.257 84.7317Z" fill="url(#paint18_linear_1_3058)"/>
<path d="M1044.81 54.0493L1073.45 13.8703C1074.37 12.5874 1075.83 11.8105 1077.41 11.7737L1208.36 8.70988C1213.56 8.5882 1215.46 15.5015 1210.93 18.0613L1160.18 46.7476C1159.57 47.0946 1158.89 47.3078 1158.18 47.3732L1059.42 56.5754C1058.58 56.654 1057.77 56.9458 1057.07 57.4233L1051.7 61.0818C1047.09 64.228 1041.57 58.5957 1044.81 54.0493Z" fill="url(#paint19_linear_1_3058)"/>
<path d="M1135.03 74.9686L1204.13 56.6952L1249.77 50.8053C1255.29 50.0927 1257.67 57.5782 1252.75 60.183L1212.06 81.728C1211.39 82.0828 1210.65 82.2805 1209.89 82.3063L1136.48 84.7996C1130.53 85.0018 1129.28 76.4916 1135.03 74.9686Z" fill="url(#paint20_linear_1_3058)"/>
<path d="M1406.77 50.2291L1421.2 41.7364C1424.49 39.7977 1428.66 42.1222 1428.73 45.9437L1430.43 129.206C1430.49 132.007 1428.23 134.308 1425.43 134.308H1224.85L1384.87 111.746C1386.3 111.544 1387.58 110.73 1388.37 109.514L1398.42 93.9997C1400.57 90.6833 1398.19 86.3048 1394.24 86.3048C1388.68 86.3048 1387.29 78.5762 1392.51 76.6456L1404.45 72.2248C1406.92 71.3118 1408.25 68.6438 1407.51 66.1211L1404.51 55.9528C1403.86 53.7524 1404.79 51.3927 1406.77 50.2291Z" fill="url(#paint21_linear_1_3058)"/>
<path d="M1037.76 108.465L979.145 124.485C973.52 126.023 974.632 134.308 980.463 134.308H1065.34C1065.79 134.308 1066.25 134.246 1066.68 134.124L1124.08 118.104C1129.68 116.54 1128.55 108.288 1122.74 108.288H1039.07C1038.63 108.288 1038.19 108.347 1037.76 108.465Z" fill="url(#paint22_linear_1_3058)"/>
<defs>
<linearGradient id="paint0_linear_1_3058" x1="720.753" y1="8.69189" x2="720.753" y2="134.308" gradientUnits="userSpaceOnUse">
<stop stop-color="#F1541B"/>
<stop offset="1" stop-color="#DBAB39"/>
</linearGradient>
<linearGradient id="paint1_linear_1_3058" x1="720.753" y1="8.69189" x2="720.753" y2="134.308" gradientUnits="userSpaceOnUse">
<stop stop-color="#FFE4A3" stop-opacity="0"/>
<stop offset="1" stop-color="#CE4817"/>
</linearGradient>
<linearGradient id="paint2_linear_1_3058" x1="720.753" y1="8.69189" x2="720.753" y2="133.86" gradientUnits="userSpaceOnUse">
<stop stop-color="#D36121"/>
<stop offset="1" stop-color="#E25A2F" stop-opacity="0"/>
</linearGradient>
<linearGradient id="paint3_linear_1_3058" x1="720.753" y1="8.69189" x2="720.753" y2="133.86" gradientUnits="userSpaceOnUse">
<stop stop-color="#D36121"/>
<stop offset="1" stop-color="#E25A2F" stop-opacity="0"/>
</linearGradient>
<linearGradient id="paint4_linear_1_3058" x1="720.753" y1="8.69189" x2="720.753" y2="133.86" gradientUnits="userSpaceOnUse">
<stop stop-color="#D36121"/>
<stop offset="1" stop-color="#E25A2F" stop-opacity="0"/>
</linearGradient>
<linearGradient id="paint5_linear_1_3058" x1="720.753" y1="8.69189" x2="720.753" y2="133.86" gradientUnits="userSpaceOnUse">
<stop stop-color="#D36121"/>
<stop offset="1" stop-color="#E25A2F" stop-opacity="0"/>
</linearGradient>
<linearGradient id="paint6_linear_1_3058" x1="720.753" y1="8.69189" x2="720.753" y2="133.86" gradientUnits="userSpaceOnUse">
<stop stop-color="#D36121"/>
<stop offset="1" stop-color="#E25A2F" stop-opacity="0"/>
</linearGradient>
<linearGradient id="paint7_linear_1_3058" x1="720.753" y1="8.69189" x2="720.753" y2="133.86" gradientUnits="userSpaceOnUse">
<stop stop-color="#D36121"/>
<stop offset="1" stop-color="#E25A2F" stop-opacity="0"/>
</linearGradient>
<linearGradient id="paint8_linear_1_3058" x1="720.753" y1="8.69189" x2="720.753" y2="133.86" gradientUnits="userSpaceOnUse">
<stop stop-color="#D36121"/>
<stop offset="1" stop-color="#E25A2F" stop-opacity="0"/>
</linearGradient>
<linearGradient id="paint9_linear_1_3058" x1="721" y1="8.24316" x2="721" y2="134.308" gradientUnits="userSpaceOnUse">
<stop stop-color="#DA7E2A"/>
<stop offset="1" stop-color="#FFA346" stop-opacity="0"/>
</linearGradient>
<linearGradient id="paint10_linear_1_3058" x1="721" y1="8.24316" x2="721" y2="134.308" gradientUnits="userSpaceOnUse">
<stop stop-color="#DA7E2A"/>
<stop offset="1" stop-color="#FFA346" stop-opacity="0"/>
</linearGradient>
<linearGradient id="paint11_linear_1_3058" x1="721" y1="8.24316" x2="721" y2="134.308" gradientUnits="userSpaceOnUse">
<stop stop-color="#DA7E2A"/>
<stop offset="1" stop-color="#FFA346" stop-opacity="0"/>
</linearGradient>
<linearGradient id="paint12_linear_1_3058" x1="721" y1="8.24316" x2="721" y2="134.308" gradientUnits="userSpaceOnUse">
<stop stop-color="#DA7E2A"/>
<stop offset="1" stop-color="#FFA346" stop-opacity="0"/>
</linearGradient>
<linearGradient id="paint13_linear_1_3058" x1="721" y1="8.24316" x2="721" y2="134.308" gradientUnits="userSpaceOnUse">
<stop stop-color="#DA7E2A"/>
<stop offset="1" stop-color="#FFA346" stop-opacity="0"/>
</linearGradient>
<linearGradient id="paint14_linear_1_3058" x1="721" y1="8.24316" x2="721" y2="134.308" gradientUnits="userSpaceOnUse">
<stop stop-color="#DA7E2A"/>
<stop offset="1" stop-color="#FFA346" stop-opacity="0"/>
</linearGradient>
<linearGradient id="paint15_linear_1_3058" x1="721" y1="8.24316" x2="721" y2="134.308" gradientUnits="userSpaceOnUse">
<stop stop-color="#DA7E2A"/>
<stop offset="1" stop-color="#FFA346" stop-opacity="0"/>
</linearGradient>
<linearGradient id="paint16_linear_1_3058" x1="721" y1="8.24316" x2="721" y2="134.308" gradientUnits="userSpaceOnUse">
<stop stop-color="#DA7E2A"/>
<stop offset="1" stop-color="#FFA346" stop-opacity="0"/>
</linearGradient>
<linearGradient id="paint17_linear_1_3058" x1="721" y1="8.24316" x2="721" y2="134.308" gradientUnits="userSpaceOnUse">
<stop stop-color="#DA7E2A"/>
<stop offset="1" stop-color="#FFA346" stop-opacity="0"/>
</linearGradient>
<linearGradient id="paint18_linear_1_3058" x1="721" y1="8.24316" x2="721" y2="134.308" gradientUnits="userSpaceOnUse">
<stop stop-color="#DA7E2A"/>
<stop offset="1" stop-color="#FFA346" stop-opacity="0"/>
</linearGradient>
<linearGradient id="paint19_linear_1_3058" x1="721" y1="8.24316" x2="721" y2="134.308" gradientUnits="userSpaceOnUse">
<stop stop-color="#DA7E2A"/>
<stop offset="1" stop-color="#FFA346" stop-opacity="0"/>
</linearGradient>
<linearGradient id="paint20_linear_1_3058" x1="721" y1="8.24316" x2="721" y2="134.308" gradientUnits="userSpaceOnUse">
<stop stop-color="#DA7E2A"/>
<stop offset="1" stop-color="#FFA346" stop-opacity="0"/>
</linearGradient>
<linearGradient id="paint21_linear_1_3058" x1="721" y1="8.24316" x2="721" y2="134.308" gradientUnits="userSpaceOnUse">
<stop stop-color="#DA7E2A"/>
<stop offset="1" stop-color="#FFA346" stop-opacity="0"/>
</linearGradient>
<linearGradient id="paint22_linear_1_3058" x1="721" y1="8.24316" x2="721" y2="134.308" gradientUnits="userSpaceOnUse">
<stop stop-color="#DA7E2A"/>
<stop offset="1" stop-color="#FFA346" stop-opacity="0"/>
</linearGradient>
</defs>
</svg>
